<svg xmlns="http://www.w3.org/2000/svg" version="1.1" xmlns:xlink="http://www.w3.org/1999/xlink" xmlns:svgjs="http://svgjs.dev/svgjs" viewBox="0 0 800 800" width="800" height="800"><g stroke-width="1.25" stroke="#a15723ff" fill="none"><circle r="3.6842105263157894" cx="0" cy="0" fill="#a15723ff" stroke="none"></circle><circle r="3.6842105263157894" cx="133.33333333333334" cy="0" fill="#154262ff" stroke="none"></circle><circle r="3.6842105263157894" cx="266.6666666666667" cy="0" fill="#a15723ff" stroke="none"></circle><circle r="3.6842105263157894" cx="400" cy="0" fill="#154262ff" stroke="none"></circle><circle r="3.6842105263157894" cx="533.3333333333334" cy="0" fill="#a15723ff" stroke="none"></circle><circle r="3.6842105263157894" cx="666.6666666666667" cy="0" fill="#154262ff" stroke="none"></circle><circle r="3.6842105263157894" cx="800.0000000000001" cy="0" fill="#a15723ff" stroke="none"></circle><circle r="3.6842105263157894" cx="0" cy="66.66666666666667" fill="#154262ff" stroke="none"></circle><circle r="3.6842105263157894" cx="133.33333333333334" cy="66.66666666666667" fill="#a15723ff" stroke="none"></circle><circle r="3.6842105263157894" cx="266.6666666666667" cy="66.66666666666667" fill="#154262ff" stroke="none"></circle><circle r="3.6842105263157894" cx="400" cy="66.66666666666667" fill="#a15723ff" stroke="none"></circle><circle r="3.6842105263157894" cx="533.3333333333334" cy="66.66666666666667" fill="#154262ff" stroke="none"></circle><circle r="3.6842105263157894" cx="666.6666666666667" cy="66.66666666666667" fill="#a15723ff" stroke="none"></circle><circle r="3.6842105263157894" cx="800.0000000000001" cy="66.66666666666667" fill="#154262ff" stroke="none"></circle><circle r="3.6842105263157894" cx="0" cy="133.33333333333334" fill="#a15723ff" stroke="none"></circle><circle r="3.6842105263157894" cx="133.33333333333334" cy="133.33333333333334" fill="#154262ff" stroke="none"></circle><circle r="3.6842105263157894" cx="266.6666666666667" cy="133.33333333333334" fill="#a15723ff" stroke="none"></circle><circle r="3.6842105263157894" cx="400" cy="133.33333333333334" fill="#154262ff" stroke="none"></circle><circle r="3.6842105263157894" cx="533.3333333333334" cy="133.33333333333334" fill="#a15723ff" stroke="none"></circle><circle r="3.6842105263157894" cx="666.6666666666667" cy="133.33333333333334" fill="#154262ff" stroke="none"></circle><circle r="3.6842105263157894" cx="800.0000000000001" cy="133.33333333333334" fill="#a15723ff" stroke="none"></circle><circle r="3.6842105263157894" cx="0" cy="200" fill="#154262ff" stroke="none"></circle><circle r="3.6842105263157894" cx="133.33333333333334" cy="200" fill="#a15723ff" stroke="none"></circle><circle r="3.6842105263157894" cx="266.6666666666667" cy="200" fill="#154262ff" stroke="none"></circle><circle r="3.6842105263157894" cx="400" cy="200" fill="#a15723ff" stroke="none"></circle><circle r="3.6842105263157894" cx="533.3333333333334" cy="200" fill="#154262ff" stroke="none"></circle><circle r="3.6842105263157894" cx="666.6666666666667" cy="200" fill="#a15723ff" stroke="none"></circle><circle r="3.6842105263157894" cx="800.0000000000001" cy="200" fill="#154262ff" stroke="none"></circle><circle r="3.6842105263157894" cx="0" cy="266.6666666666667" fill="#a15723ff" stroke="none"></circle><circle r="3.6842105263157894" cx="133.33333333333334" cy="266.6666666666667" fill="#154262ff" stroke="none"></circle><circle r="3.6842105263157894" cx="266.6666666666667" cy="266.6666666666667" fill="#a15723ff" stroke="none"></circle><circle r="3.6842105263157894" cx="400" cy="266.6666666666667" fill="#154262ff" stroke="none"></circle><circle r="3.6842105263157894" cx="533.3333333333334" cy="266.6666666666667" fill="#a15723ff" stroke="none"></circle><circle r="3.6842105263157894" cx="666.6666666666667" cy="266.6666666666667" fill="#154262ff" stroke="none"></circle><circle r="3.6842105263157894" cx="800.0000000000001" cy="266.6666666666667" fill="#a15723ff" stroke="none"></circle><circle r="3.6842105263157894" cx="0" cy="333.33333333333337" fill="#154262ff" stroke="none"></circle><circle r="3.6842105263157894" cx="133.33333333333334" cy="333.33333333333337" fill="#a15723ff" stroke="none"></circle><circle r="3.6842105263157894" cx="266.6666666666667" cy="333.33333333333337" fill="#154262ff" stroke="none"></circle><circle r="3.6842105263157894" cx="400" cy="333.33333333333337" fill="#a15723ff" stroke="none"></circle><circle r="3.6842105263157894" cx="533.3333333333334" cy="333.33333333333337" fill="#154262ff" stroke="none"></circle><circle r="3.6842105263157894" cx="666.6666666666667" cy="333.33333333333337" fill="#a15723ff" stroke="none"></circle><circle r="3.6842105263157894" cx="800.0000000000001" cy="333.33333333333337" fill="#154262ff" stroke="none"></circle><circle r="3.6842105263157894" cx="0" cy="400.00000000000006" fill="#a15723ff" stroke="none"></circle><circle r="3.6842105263157894" cx="133.33333333333334" cy="400.00000000000006" fill="#154262ff" stroke="none"></circle><circle r="3.6842105263157894" cx="266.6666666666667" cy="400.00000000000006" fill="#a15723ff" stroke="none"></circle><circle r="3.6842105263157894" cx="400" cy="400.00000000000006" fill="#154262ff" stroke="none"></circle><circle r="3.6842105263157894" cx="533.3333333333334" cy="400.00000000000006" fill="#a15723ff" stroke="none"></circle><circle r="3.6842105263157894" cx="666.6666666666667" cy="400.00000000000006" fill="#154262ff" stroke="none"></circle><circle r="3.6842105263157894" cx="800.0000000000001" cy="400.00000000000006" fill="#a15723ff" stroke="none"></circle><circle r="3.6842105263157894" cx="0" cy="466.66666666666674" fill="#154262ff" stroke="none"></circle><circle r="3.6842105263157894" cx="133.33333333333334" cy="466.66666666666674" fill="#a15723ff" stroke="none"></circle><circle r="3.6842105263157894" cx="266.6666666666667" cy="466.66666666666674" fill="#154262ff" stroke="none"></circle><circle r="3.6842105263157894" cx="400" cy="466.66666666666674" fill="#a15723ff" stroke="none"></circle><circle r="3.6842105263157894" cx="533.3333333333334" cy="466.66666666666674" fill="#154262ff" stroke="none"></circle><circle r="3.6842105263157894" cx="666.6666666666667" cy="466.66666666666674" fill="#a15723ff" stroke="none"></circle><circle r="3.6842105263157894" cx="800.0000000000001" cy="466.66666666666674" fill="#154262ff" stroke="none"></circle><circle r="3.6842105263157894" cx="0" cy="533.3333333333334" fill="#a15723ff" stroke="none"></circle><circle r="3.6842105263157894" cx="133.33333333333334" cy="533.3333333333334" fill="#154262ff" stroke="none"></circle><circle r="3.6842105263157894" cx="266.6666666666667" cy="533.3333333333334" fill="#a15723ff" stroke="none"></circle><circle r="3.6842105263157894" cx="400" cy="533.3333333333334" fill="#154262ff" stroke="none"></circle><circle r="3.6842105263157894" cx="533.3333333333334" cy="533.3333333333334" fill="#a15723ff" stroke="none"></circle><circle r="3.6842105263157894" cx="666.6666666666667" cy="533.3333333333334" fill="#154262ff" stroke="none"></circle><circle r="3.6842105263157894" cx="800.0000000000001" cy="533.3333333333334" fill="#a15723ff" stroke="none"></circle><circle r="3.6842105263157894" cx="0" cy="600" fill="#154262ff" stroke="none"></circle><circle r="3.6842105263157894" cx="133.33333333333334" cy="600" fill="#a15723ff" stroke="none"></circle><circle r="3.6842105263157894" cx="266.6666666666667" cy="600" fill="#154262ff" stroke="none"></circle><circle r="3.6842105263157894" cx="400" cy="600" fill="#a15723ff" stroke="none"></circle><circle r="3.6842105263157894" cx="533.3333333333334" cy="600" fill="#154262ff" stroke="none"></circle><circle r="3.6842105263157894" cx="666.6666666666667" cy="600" fill="#a15723ff" stroke="none"></circle><circle r="3.6842105263157894" cx="800.0000000000001" cy="600" fill="#154262ff" stroke="none"></circle><circle r="3.6842105263157894" cx="0" cy="666.6666666666666" fill="#a15723ff" stroke="none"></circle><circle r="3.6842105263157894" cx="133.33333333333334" cy="666.6666666666666" fill="#154262ff" stroke="none"></circle><circle r="3.6842105263157894" cx="266.6666666666667" cy="666.6666666666666" fill="#a15723ff" stroke="none"></circle><circle r="3.6842105263157894" cx="400" cy="666.6666666666666" fill="#154262ff" stroke="none"></circle><circle r="3.6842105263157894" cx="533.3333333333334" cy="666.6666666666666" fill="#a15723ff" stroke="none"></circle><circle r="3.6842105263157894" cx="666.6666666666667" cy="666.6666666666666" fill="#154262ff" stroke="none"></circle><circle r="3.6842105263157894" cx="800.0000000000001" cy="666.6666666666666" fill="#a15723ff" stroke="none"></circle><circle r="3.6842105263157894" cx="0" cy="733.3333333333333" fill="#154262ff" stroke="none"></circle><circle r="3.6842105263157894" cx="133.33333333333334" cy="733.3333333333333" fill="#a15723ff" stroke="none"></circle><circle r="3.6842105263157894" cx="266.6666666666667" cy="733.3333333333333" fill="#154262ff" stroke="none"></circle><circle r="3.6842105263157894" cx="400" cy="733.3333333333333" fill="#a15723ff" stroke="none"></circle><circle r="3.6842105263157894" cx="533.3333333333334" cy="733.3333333333333" fill="#154262ff" stroke="none"></circle><circle r="3.6842105263157894" cx="666.6666666666667" cy="733.3333333333333" fill="#a15723ff" stroke="none"></circle><circle r="3.6842105263157894" cx="800.0000000000001" cy="733.3333333333333" fill="#154262ff" stroke="none"></circle><circle r="3.6842105263157894" cx="0" cy="799.9999999999999" fill="#a15723ff" stroke="none"></circle><circle r="3.6842105263157894" cx="133.33333333333334" cy="799.9999999999999" fill="#154262ff" stroke="none"></circle><circle r="3.6842105263157894" cx="266.6666666666667" cy="799.9999999999999" fill="#a15723ff" stroke="none"></circle><circle r="3.6842105263157894" cx="400" cy="799.9999999999999" fill="#154262ff" stroke="none"></circle><circle r="3.6842105263157894" cx="533.3333333333334" cy="799.9999999999999" fill="#a15723ff" stroke="none"></circle><circle r="3.6842105263157894" cx="666.6666666666667" cy="799.9999999999999" fill="#154262ff" stroke="none"></circle><circle r="3.6842105263157894" cx="800.0000000000001" cy="799.9999999999999" fill="#a15723ff" stroke="none"></circle></g></svg>