<svg version="1.2" xmlns="http://www.w3.org/2000/svg" viewBox="0 0 595 616" width="595" height="616">
	<title>New Project</title>
	<style>
		.s0 { fill: #f9b03e } 
		.s1 { fill: #3a8cab } 
		.s2 { fill: #5d56a1 } 
		.s3 { fill: #bc3958 } 
		.s4 { fill: #5164ac } 
		.s5 { fill: #ce5249 } 
		.s6 { fill: #e6863e } 
		.s7 { fill: #6d9482 } 
		.s8 { fill: #509633 } 
		.s9 { fill: #5a6382 } 
		.s10 { fill: #8f456f } 
		.s11 { fill: #3f7c38 } 
		.s12 { fill: #7c9c2c } 
		.s13 { fill: #66712b } 
		.s14 { fill: #ffffff } 
		.s15 { fill: #fefefe } 
		.s16 { fill: #fdfdfd } 
		.s17 { fill: #fbfbfb } 
		.s18 { fill: #fafafa } 
		.s19 { fill: #f8f7f7 } 
		.s20 { fill: #f6f6f6 } 
		.s21 { fill: #f4f3f4 } 
		.s22 { fill: #f2f2f2 } 
		.s23 { fill: #f1f1f1 } 
		.s24 { fill: #efefef } 
		.s25 { fill: #efeeee } 
		.s26 { fill: #ececec } 
		.s27 { fill: #ebebeb } 
		.s28 { fill: #eae9e9 } 
		.s29 { fill: #e8e7e7 } 
		.s30 { fill: #e7e6e7 } 
		.s31 { fill: #e4e3e3 } 
		.s32 { fill: #e3e2e2 } 
		.s33 { fill: #e1e1e1 } 
		.s34 { fill: #e0e0e0 } 
		.s35 { fill: #dedede } 
		.s36 { fill: #dddddd } 
		.s37 { fill: #dbdbdc } 
		.s38 { fill: #dadad9 } 
		.s39 { fill: #d8d8d8 } 
		.s40 { fill: #d6d6d6 } 
		.s41 { fill: #d5d5d5 } 
		.s42 { fill: #d3d3d3 } 
		.s43 { fill: #d2d2d2 } 
		.s44 { fill: #d0d0d0 } 
		.s45 { fill: #cfcece } 
		.s46 { fill: #cecdcd } 
		.s47 { fill: #cccbcb } 
		.s48 { fill: #cbcaca } 
		.s49 { fill: #c9c9c9 } 
		.s50 { fill: #c8c7c7 } 
		.s51 { fill: #c6c6c6 } 
		.s52 { fill: #c4c4c3 } 
		.s53 { fill: #c3c2c2 } 
		.s54 { fill: #c0c0bf } 
		.s55 { fill: #bebebf } 
		.s56 { fill: #bdbdbc } 
		.s57 { fill: #bcbcbb } 
		.s58 { fill: #bababa } 
		.s59 { fill: #b8b8b8 } 
		.s60 { fill: #b8b7b7 } 
		.s61 { fill: #b6b6b5 } 
		.s62 { fill: #b5b4b4 } 
		.s63 { fill: #b2b2b2 } 
		.s64 { fill: #b2b1b2 } 
		.s65 { fill: #afb0af } 
		.s66 { fill: #aeadad } 
		.s67 { fill: #acacac } 
		.s68 { fill: #a9a9aa } 
		.s69 { fill: #a8a8a8 } 
		.s70 { fill: #a7a7a6 } 
		.s71 { fill: #a6a6a6 } 
		.s72 { fill: #a5a4a4 } 
		.s73 { fill: #a2a1a1 } 
		.s74 { fill: #9f9f9f } 
		.s75 { fill: #9e9e9e } 
		.s76 { fill: #9d9d9c } 
		.s77 { fill: #9c9b9b } 
		.s78 { fill: #9a9999 } 
		.s79 { fill: #989898 } 
		.s80 { fill: #979797 } 
		.s81 { fill: #949494 } 
		.s82 { fill: #939393 } 
		.s83 { fill: #919191 } 
		.s84 { fill: #909090 } 
		.s85 { fill: #8e8e8e } 
		.s86 { fill: #8d8d8d } 
		.s87 { fill: #8b8b8b } 
		.s88 { fill: #888989 } 
		.s89 { fill: #878889 } 
		.s90 { fill: #868686 } 
		.s91 { fill: #848484 } 
		.s92 { fill: #828383 } 
		.s93 { fill: #818181 } 
		.s94 { fill: #276690 } 
		.s95 { fill: none;stroke: #ffffff;stroke-miterlimit:10;stroke-width: .4 } 
		.s96 { fill: #ffffff;stroke: #ffffff;stroke-miterlimit:10;stroke-width: .4 } 
	</style>
	<g id="Layer 1">
		<path id="Path 7" fill-rule="evenodd" class="s0" d="m332 243.5c-53 0-95.9 42.9-95.9 95.9 0 53 42.9 96 95.9 96q0.6 0 1.3-0.1c-1.7 63.3-38.4 111-52.6 132.2 26.1-18.6 73.9-69.8 95.2-142.8 30.9-15.9 52-48.1 52-85.3 0-53-42.9-95.9-95.9-95.9z"/>
		<path id="Path 8" fill-rule="evenodd" class="s1" d="m496 144.5c-51.9 0-94 42.1-94 94 0 51.9 42.1 94 94 94q7.6 0 14.9-1.2c-1.6 14.3-5.5 28.9-11.9 41.7 15.6-16.8 26.6-31.7 34-48.1 33.5-14.4 57-47.6 57-86.4 0-51.9-42.1-94-94-94z"/>
		<path id="Path 9" fill-rule="evenodd" class="s2" d="m106.8 130.2c-56.8 0-102.8 46-102.8 102.8 0 45.3 29.4 83.8 70.2 97.5 8 16.7 19.7 32.3 35.8 49.6-6.9-13.8-11.1-29.4-13-44.8q4.8 0.4 9.8 0.5c56.8 0 102.8-46.1 102.8-102.8 0-56.8-46-102.8-102.8-102.8z"/>
		<path id="Path 10" fill-rule="evenodd" class="s3" d="m338.6 11.3l120.9 25.9c14.3 3.1 23.4 17.2 20.4 31.5l-25.9 120.9c-3.1 14.2-17.2 23.4-31.5 20.3l-40.9-8.8c1.1 16.3 5.2 33.4 12.6 48.2-17.3-18.5-28.9-34.8-36.2-53.2l-56.3-12.1c-14.3-3-23.4-17.2-20.4-31.4l25.9-120.9c3-14.2 17.2-23.4 31.4-20.4z"/>
		<path id="Path 11" fill-rule="evenodd" class="s4" d="m462.3 150.7l-8.3 38.9c-3.1 14.2-17.2 23.4-31.5 20.3l-15-3.2c9.3-25.7 29.4-46.2 54.8-56z"/>
		<path id="Path 12" fill-rule="evenodd" class="s5" d="m386 227.4q-7.1-3.7-14.7-6.3c6.2 9.2 13.7 18.4 22.9 28.2-3.5-6.9-6.2-14.3-8.2-21.9z"/>
		<path id="Path 13" fill-rule="evenodd" class="s0" d="m497.5 75.1c-29.3 0-53.1 23.8-53.1 53.1 0 26 18.7 47.6 43.4 52.2-0.7 9.2-2.9 18.9-7.1 27.2 8.6-9.2 14.7-17.4 18.9-26.4 28.3-1.1 51-24.4 51-53 0-29.3-23.8-53.1-53.1-53.1z"/>
		<path id="Path 14" fill-rule="evenodd" class="s6" d="m477.7 78.9l-18.4 86.1c-9.2-9.5-14.9-22.5-14.9-36.8 0-22.3 13.8-41.4 33.3-49.3z"/>
		<path id="Path 15" fill-rule="evenodd" class="s7" d="m496 144.5c-15.9 0-30.9 4-44.1 11 7.7 12.8 20.7 22.1 35.9 24.9-0.7 9.2-2.9 18.9-7.1 27.2 8.6-9.2 14.7-17.4 18.9-26.4 17.9-0.7 33.6-10.3 42.7-24.5-13.7-7.8-29.5-12.2-46.3-12.2z"/>
		<path id="Path 16" fill-rule="evenodd" class="s8" d="m128.7 50.1c39.4 0 71.3 31.9 71.3 71.3 0 34.9-25.1 64-58.3 70.1 0.9 12.3 4 25.3 9.6 36.6-11.5-12.4-19.8-23.5-25.4-35.5-38-1.5-68.4-32.8-68.4-71.2 0-39.4 31.9-71.3 71.2-71.3z"/>
		<path id="Path 17" fill-rule="evenodd" class="s9" d="m106.8 130.2c-16.7 0-32.6 4-46.5 11.1 8.3 28.8 34.4 50.1 65.6 51.3 5.6 12 13.9 23.1 25.4 35.5-5.6-11.3-8.7-24.3-9.6-36.6 17.3-3.2 32.4-12.6 42.8-25.8-18.8-21.8-46.6-35.5-77.7-35.5z"/>
		<path id="Path 18" fill-rule="evenodd" class="s10" d="m283.4 142.9c28.8-1.6 56.9 14.6 69.1 42.7q2.2 5 3.5 10.1l-54.3-11.7c-14.3-3-23.5-17.2-20.4-31.4z"/>
		<path id="Path 19" fill-rule="evenodd" class="s7" d="m332 243.5c-29.9 0-56.7 13.7-74.3 35.2 17 7.7 36.9 8.8 55.4 1.5 9.9 8.8 21.9 15.7 37.3 22.4-9.6-8.1-17.6-18.7-23.3-29.7 10.5-7 18.6-16.6 24-27.5-6.2-1.3-12.6-1.9-19.1-1.9z"/>
		<path id="Path 20" fill-rule="evenodd" class="s0" d="m274.6 4.3l-89.7 17.2c-10.6 2.1-17.6 12.4-15.6 22.9l17.2 89.7c2 10.6 12.4 17.6 22.9 15.6l59.4-11.4c-1.1 10.4-4 21.2-9 30.6 11.4-11.6 19.2-22 24.4-33.6l14.9-2.8c10.6-2.1 17.6-12.4 15.6-22.9l-17.2-89.7c-2.1-10.6-12.4-17.6-22.9-15.6z"/>
		<path id="Path 21" fill-rule="evenodd" class="s7" d="m267.8 145.6q6.2-1.8 12.4-2.4c-5 8.6-11.6 16.8-20.4 25.7 3.8-7.2 6.4-15.3 8-23.3z"/>
		<path id="Path 22" fill-rule="evenodd" class="s11" d="m173.4 65.9c16.2 13.1 26.6 33.1 26.6 55.5 0 9-1.7 17.6-4.7 25.5-4.4-2.7-7.7-7.3-8.8-12.8z"/>
		<path id="Path 23" fill-rule="evenodd" class="s6" d="m285 135.2l18.3-85.2 11.4 59.6c2 10.5-5 20.8-15.6 22.9z"/>
		<path id="Path 24" fill-rule="evenodd" class="s8" d="m470.3 272.9l-86.6-18.6c-10.2-2.2-20.4 4.4-22.6 14.6l-18.5 86.6c-2.2 10.2 4.4 20.4 14.6 22.6l57.4 12.3c-5 8.9-11.7 17.4-19.7 23.9 14.6-6.1 25.5-12.4 34.5-20.7l14.4 3c10.2 2.2 20.4-4.4 22.6-14.6l18.5-86.6c2.2-10.2-4.4-20.4-14.6-22.5z"/>
		<path id="Path 25" fill-rule="evenodd" class="s12" d="m413.5 390.1c9.1-14.7 14.4-32.1 14.4-50.7 0-37-21-69.2-51.8-85.2-7.2 1.4-13.3 7-15 14.7l-18.5 86.6c-2.2 10.2 4.4 20.4 14.6 22.6z"/>
		<path id="Path 26" fill-rule="evenodd" class="s1" d="m404.2 258.7c7.9 36.2 36.7 64.6 73.2 71.9l7.5-35.2c2.2-10.2-4.4-20.4-14.6-22.5z"/>
		<path id="Path 27" fill-rule="evenodd" class="s13" d="m404.2 258.7c7.9 36.2 36.7 64.6 73.2 71.9l7.5-35.2c2.2-10.2-4.4-20.4-14.6-22.5z"/>
		<path id="Path 28" fill-rule="evenodd" class="s1" d="m174.9 299.7c30.8-9.8 63.6 7.1 73.5 37.9 8.7 27.2-3.7 56.2-28 69.3 3.7 9.4 9.4 18.8 16.6 26.2-12.1-6.8-21.3-13.4-28.7-21.4-30.1 8.3-61.6-8.5-71.2-38.5-9.9-30.8 7.1-63.7 37.8-73.5z"/>
		<path id="Path 31" fill-rule="evenodd" class="s14" d="m294.8 603.6c-92.5 0-167.2-3.7-167.2-8.2 0-4.6 74.7-8.3 167.2-8.3 92.4 0 167.1 3.7 167.1 8.3 0 4.5-74.7 8.2-167.1 8.2z"/>
		<path id="Path 32" fill-rule="evenodd" class="s15" d="m294.8 603.6c-91.6 0-165.7-3.7-165.7-8.2 0-4.5 74.1-8.2 165.7-8.2 91.5 0 165.6 3.7 165.6 8.2 0 4.5-74.1 8.2-165.6 8.2z"/>
		<path id="Path 33" fill-rule="evenodd" class="s16" d="m294.8 603.5c-90.8 0-164.1-3.6-164.1-8.1 0-4.5 73.3-8.1 164.1-8.1 90.7 0 164 3.6 164 8.1 0 4.5-73.3 8.1-164 8.1z"/>
		<path id="Path 34" fill-rule="evenodd" class="s17" d="m294.8 603.5c-89.9 0-162.6-3.7-162.6-8.1 0-4.5 72.7-8.1 162.6-8.1 89.9 0 162.5 3.6 162.5 8.1 0 4.4-72.6 8.1-162.5 8.1z"/>
		<path id="Path 35" fill-rule="evenodd" class="s18" d="m294.8 603.4c-89.1 0-161.1-3.6-161.1-8 0-4.4 72-8 161.1-8 89 0 161 3.6 161 8 0 4.4-72 8-161 8z"/>
		<path id="Path 36" fill-rule="evenodd" class="s19" d="m294.8 603.3c-88.3 0-159.6-3.5-159.6-7.9 0-4.4 71.3-8 159.6-8 88.2 0 159.5 3.6 159.5 8 0 4.4-71.3 7.9-159.5 7.9z"/>
		<path id="Path 37" fill-rule="evenodd" class="s20" d="m294.8 603.3c-87.4 0-158-3.6-158-7.9 0-4.4 70.6-7.9 158-7.9 87.3 0 157.9 3.5 157.9 7.9 0 4.3-70.6 7.9-157.9 7.9z"/>
		<path id="Path 38" fill-rule="evenodd" class="s21" d="m294.8 603.2c-86.6 0-156.5-3.5-156.5-7.8 0-4.3 69.9-7.8 156.5-7.8 86.5 0 156.4 3.5 156.4 7.8 0 4.3-69.9 7.8-156.4 7.8z"/>
		<path id="Path 39" fill-rule="evenodd" class="s22" d="m294.8 603.2c-85.7 0-155-3.5-155-7.8 0-4.3 69.3-7.8 155-7.8 85.6 0 154.9 3.5 154.9 7.8 0 4.3-69.3 7.8-154.9 7.8z"/>
		<path id="Path 40" fill-rule="evenodd" class="s23" d="m294.8 603.1c-84.9 0-153.5-3.5-153.5-7.7 0-4.3 68.6-7.7 153.5-7.7 84.8 0 153.4 3.4 153.4 7.7 0 4.2-68.6 7.7-153.4 7.7z"/>
		<path id="Path 41" fill-rule="evenodd" class="s24" d="m294.8 603c-84 0-151.9-3.4-151.9-7.6 0-4.2 67.9-7.7 151.9-7.7 83.9 0 151.8 3.5 151.8 7.7 0 4.2-67.9 7.6-151.8 7.6z"/>
		<path id="Path 42" fill-rule="evenodd" class="s25" d="m294.8 603c-83.2 0-150.4-3.4-150.4-7.6 0-4.2 67.2-7.6 150.4-7.6 83.1 0 150.3 3.4 150.3 7.6 0 4.2-67.2 7.6-150.3 7.6z"/>
		<path id="Path 43" fill-rule="evenodd" class="s26" d="m294.8 602.9c-82.3 0-148.9-3.4-148.9-7.5 0-4.2 66.6-7.5 148.9-7.5 82.3 0 148.8 3.3 148.8 7.5 0 4.1-66.5 7.5-148.8 7.5z"/>
		<path id="Path 44" fill-rule="evenodd" class="s27" d="m294.8 602.9c-81.5 0-147.3-3.4-147.3-7.5 0-4.1 65.8-7.5 147.3-7.5 81.4 0 147.3 3.4 147.3 7.5 0 4.1-65.9 7.5-147.3 7.5z"/>
		<path id="Path 45" fill-rule="evenodd" class="s28" d="m294.8 602.8c-80.7 0-145.8-3.3-145.8-7.4 0-4.1 65.1-7.4 145.8-7.4 80.6 0 145.7 3.3 145.7 7.4 0 4.1-65.1 7.4-145.7 7.4z"/>
		<path id="Path 46" fill-rule="evenodd" class="s29" d="m294.8 602.7c-79.8 0-144.3-3.3-144.3-7.3 0-4.1 64.5-7.4 144.3-7.4 79.7 0 144.2 3.3 144.2 7.4 0 4-64.5 7.3-144.2 7.3z"/>
		<path id="Path 47" fill-rule="evenodd" class="s30" d="m294.8 602.7c-79 0-142.8-3.3-142.8-7.3 0-4 63.8-7.3 142.8-7.3 78.9 0 142.7 3.3 142.7 7.3 0 4-63.8 7.3-142.7 7.3z"/>
		<path id="Path 48" fill-rule="evenodd" class="s31" d="m294.8 602.6c-78.1 0-141.2-3.2-141.2-7.2 0-4 63.1-7.2 141.2-7.2 78 0 141.2 3.2 141.2 7.2 0 4-63.2 7.2-141.2 7.2z"/>
		<path id="Path 49" fill-rule="evenodd" class="s32" d="m294.8 602.6c-77.3 0-139.7-3.2-139.7-7.2 0-4 62.4-7.2 139.7-7.2 77.2 0 139.6 3.2 139.6 7.2 0 4-62.4 7.2-139.6 7.2z"/>
		<path id="Path 50" fill-rule="evenodd" class="s33" d="m294.8 602.5c-76.4 0-138.2-3.2-138.2-7.1 0-3.9 61.8-7.1 138.2-7.1 76.4 0 138.1 3.2 138.1 7.1 0 3.9-61.7 7.1-138.1 7.1z"/>
		<path id="Path 51" fill-rule="evenodd" class="s34" d="m294.8 602.4c-75.6 0-136.7-3.1-136.7-7 0-3.9 61.1-7.1 136.7-7.1 75.5 0 136.6 3.2 136.6 7.1 0 3.9-61.1 7-136.6 7z"/>
		<path id="Path 52" fill-rule="evenodd" class="s35" d="m294.8 602.4c-74.8 0-135.1-3.1-135.1-7 0-3.9 60.3-7 135.1-7 74.7 0 135.1 3.1 135.1 7 0 3.9-60.4 7-135.1 7z"/>
		<path id="Path 53" fill-rule="evenodd" class="s36" d="m294.8 602.3c-73.9 0-133.6-3.1-133.6-6.9 0-3.8 59.7-6.9 133.6-6.9 73.8 0 133.5 3.1 133.5 6.9 0 3.8-59.7 6.9-133.5 6.9z"/>
		<path id="Path 54" fill-rule="evenodd" class="s37" d="m294.8 602.3c-73.1 0-132.1-3.1-132.1-6.9 0-3.8 59-6.9 132.1-6.9 73 0 132 3.1 132 6.9 0 3.8-59 6.9-132 6.9z"/>
		<path id="Path 55" fill-rule="evenodd" class="s38" d="m294.8 602.2c-72.2 0-130.6-3-130.6-6.8 0-3.8 58.4-6.8 130.6-6.8 72.1 0 130.5 3 130.5 6.8 0 3.8-58.4 6.8-130.5 6.8z"/>
		<path id="Path 56" fill-rule="evenodd" class="s39" d="m294.8 602.1c-71.4 0-129-3-129-6.7 0-3.7 57.6-6.8 129-6.8 71.3 0 128.9 3.1 128.9 6.8 0 3.7-57.6 6.7-128.9 6.7z"/>
		<path id="Path 57" fill-rule="evenodd" class="s40" d="m294.8 602.1c-70.5 0-127.5-3-127.5-6.7 0-3.7 57-6.7 127.5-6.7 70.4 0 127.4 3 127.4 6.7 0 3.7-57 6.7-127.4 6.7z"/>
		<path id="Path 58" fill-rule="evenodd" class="s41" d="m294.8 602c-69.7 0-126-2.9-126-6.6 0-3.7 56.3-6.6 126-6.6 69.6 0 125.9 2.9 125.9 6.6 0 3.7-56.3 6.6-125.9 6.6z"/>
		<path id="Path 59" fill-rule="evenodd" class="s42" d="m294.8 602c-68.8 0-124.5-3-124.5-6.6 0-3.7 55.7-6.6 124.5-6.6 68.8 0 124.4 2.9 124.4 6.6 0 3.6-55.6 6.6-124.4 6.6z"/>
		<path id="Path 60" fill-rule="evenodd" class="s43" d="m294.8 601.9c-68 0-122.9-2.9-122.9-6.5 0-3.6 54.9-6.5 122.9-6.5 67.9 0 122.8 2.9 122.8 6.5 0 3.6-54.9 6.5-122.8 6.5z"/>
		<path id="Path 61" fill-rule="evenodd" class="s44" d="m294.8 601.8c-67.2 0-121.4-2.8-121.4-6.4 0-3.6 54.2-6.5 121.4-6.5 67.1 0 121.3 2.9 121.3 6.5 0 3.6-54.2 6.4-121.3 6.4z"/>
		<path id="Path 62" fill-rule="evenodd" class="s45" d="m294.8 601.8c-66.3 0-119.9-2.9-119.9-6.4 0-3.6 53.6-6.4 119.9-6.4 66.2 0 119.8 2.8 119.8 6.4 0 3.5-53.6 6.4-119.8 6.4z"/>
		<path id="Path 63" fill-rule="evenodd" class="s46" d="m294.8 601.7c-65.5 0-118.4-2.8-118.4-6.3 0-3.5 52.9-6.3 118.4-6.3 65.4 0 118.3 2.8 118.3 6.3 0 3.5-52.9 6.3-118.3 6.3z"/>
		<path id="Path 64" fill-rule="evenodd" class="s47" d="m294.8 601.7c-64.6 0-116.8-2.8-116.8-6.3 0-3.5 52.2-6.3 116.8-6.3 64.5 0 116.7 2.8 116.7 6.3 0 3.5-52.2 6.3-116.7 6.3z"/>
		<path id="Path 65" fill-rule="evenodd" class="s48" d="m294.8 601.6c-63.8 0-115.3-2.8-115.3-6.2 0-3.5 51.5-6.2 115.3-6.2 63.7 0 115.2 2.7 115.2 6.2 0 3.4-51.5 6.2-115.2 6.2z"/>
		<path id="Path 66" fill-rule="evenodd" class="s49" d="m294.8 601.5c-62.9 0-113.8-2.7-113.8-6.1 0-3.4 50.9-6.2 113.8-6.2 62.8 0 113.7 2.8 113.7 6.2 0 3.4-50.9 6.1-113.7 6.1z"/>
		<path id="Path 67" fill-rule="evenodd" class="s50" d="m294.8 601.5c-62.1 0-112.2-2.7-112.2-6.1 0-3.4 50.1-6.1 112.2-6.1 62 0 112.2 2.7 112.2 6.1 0 3.4-50.2 6.1-112.2 6.1z"/>
		<path id="Path 68" fill-rule="evenodd" class="s51" d="m294.8 601.4c-61.2 0-110.7-2.7-110.7-6 0-3.4 49.5-6 110.7-6 61.2 0 110.6 2.6 110.6 6 0 3.3-49.4 6-110.6 6z"/>
		<path id="Path 69" fill-rule="evenodd" class="s52" d="m294.8 601.4c-60.4 0-109.2-2.7-109.2-6 0-3.3 48.8-6 109.2-6 60.3 0 109.1 2.7 109.1 6 0 3.3-48.8 6-109.1 6z"/>
		<path id="Path 70" fill-rule="evenodd" class="s53" d="m294.8 601.3c-59.6 0-107.7-2.6-107.7-5.9 0-3.3 48.1-5.9 107.7-5.9 59.5 0 107.6 2.6 107.6 5.9 0 3.3-48.1 5.9-107.6 5.9z"/>
		<path id="Path 71" fill-rule="evenodd" class="s54" d="m294.8 601.2c-58.7 0-106.1-2.6-106.1-5.8 0-3.3 47.4-5.9 106.1-5.9 58.6 0 106.1 2.6 106.1 5.9 0 3.2-47.5 5.8-106.1 5.8z"/>
		<path id="Path 72" fill-rule="evenodd" class="s55" d="m294.8 601.2c-57.9 0-104.6-2.6-104.6-5.8 0-3.2 46.7-5.8 104.6-5.8 57.8 0 104.5 2.6 104.5 5.8 0 3.2-46.7 5.8-104.5 5.8z"/>
		<path id="Path 73" fill-rule="evenodd" class="s56" d="m294.8 601.1c-57 0-103.1-2.5-103.1-5.7 0-3.2 46.1-5.7 103.1-5.7 56.9 0 103 2.5 103 5.7 0 3.2-46.1 5.7-103 5.7z"/>
		<path id="Path 74" fill-rule="evenodd" class="s57" d="m294.8 601.1c-56.2 0-101.6-2.6-101.6-5.7 0-3.2 45.4-5.7 101.6-5.7 56.1 0 101.5 2.5 101.5 5.7 0 3.1-45.4 5.7-101.5 5.7z"/>
		<path id="Path 75" fill-rule="evenodd" class="s58" d="m294.8 601c-55.3 0-100-2.5-100-5.6 0-3.1 44.7-5.6 100-5.6 55.3 0 99.9 2.5 99.9 5.6 0 3.1-44.6 5.6-99.9 5.6z"/>
		<path id="Path 76" fill-rule="evenodd" class="s59" d="m294.8 600.9c-54.5 0-98.5-2.4-98.5-5.5 0-3.1 44-5.6 98.5-5.6 54.4 0 98.4 2.5 98.4 5.6 0 3.1-44 5.5-98.4 5.5z"/>
		<path id="Path 77" fill-rule="evenodd" class="s60" d="m294.8 600.9c-53.7 0-97-2.5-97-5.5 0-3.1 43.3-5.5 97-5.5 53.6 0 96.9 2.4 96.9 5.5 0 3-43.3 5.5-96.9 5.5z"/>
		<path id="Path 78" fill-rule="evenodd" class="s61" d="m294.8 600.8c-52.8 0-95.5-2.4-95.5-5.4 0-3 42.7-5.4 95.5-5.4 52.7 0 95.4 2.4 95.4 5.4 0 3-42.7 5.4-95.4 5.4z"/>
		<path id="Path 79" fill-rule="evenodd" class="s62" d="m294.8 600.8c-52 0-93.9-2.4-93.9-5.4 0-3 41.9-5.4 93.9-5.4 51.9 0 93.8 2.4 93.8 5.4 0 3-41.9 5.4-93.8 5.4z"/>
		<path id="Path 80" fill-rule="evenodd" class="s63" d="m294.8 600.7c-51.1 0-92.4-2.4-92.4-5.3 0-3 41.3-5.3 92.4-5.3 51 0 92.3 2.3 92.3 5.3 0 2.9-41.3 5.3-92.3 5.3z"/>
		<path id="Path 81" fill-rule="evenodd" class="s64" d="m294.8 600.6c-50.3 0-90.9-2.3-90.9-5.2 0-2.9 40.6-5.3 90.9-5.3 50.2 0 90.8 2.4 90.8 5.3 0 2.9-40.6 5.2-90.8 5.2z"/>
		<path id="Path 82" fill-rule="evenodd" class="s65" d="m294.8 600.6c-49.4 0-89.4-2.3-89.4-5.2 0-2.9 40-5.2 89.4-5.2 49.3 0 89.3 2.3 89.3 5.2 0 2.9-40 5.2-89.3 5.2z"/>
		<path id="Path 83" fill-rule="evenodd" class="s66" d="m294.8 600.5c-48.6 0-87.8-2.3-87.8-5.1 0-2.9 39.2-5.1 87.8-5.1 48.5 0 87.7 2.2 87.7 5.1 0 2.8-39.2 5.1-87.7 5.1z"/>
		<path id="Path 84" fill-rule="evenodd" class="s67" d="m294.8 600.5c-47.7 0-86.3-2.3-86.3-5.1 0-2.8 38.6-5.1 86.3-5.1 47.7 0 86.2 2.3 86.2 5.1 0 2.8-38.5 5.1-86.2 5.1z"/>
		<path id="Path 85" fill-rule="evenodd" class="s68" d="m294.8 600.4c-46.9 0-84.8-2.2-84.8-5 0-2.8 37.9-5 84.8-5 46.8 0 84.7 2.2 84.7 5 0 2.8-37.9 5-84.7 5z"/>
		<path id="Path 86" fill-rule="evenodd" class="s69" d="m294.8 600.3c-46.1 0-83.2-2.2-83.2-4.9 0-2.8 37.1-5 83.2-5 46 0 83.2 2.2 83.2 5 0 2.7-37.2 4.9-83.2 4.9z"/>
		<path id="Path 87" fill-rule="evenodd" class="s70" d="m294.8 600.3c-45.2 0-81.7-2.2-81.7-4.9 0-2.7 36.5-4.9 81.7-4.9 45.1 0 81.6 2.2 81.6 4.9 0 2.7-36.5 4.9-81.6 4.9z"/>
		<path id="Path 88" fill-rule="evenodd" class="s71" d="m294.8 600.2c-44.4 0-80.2-2.1-80.2-4.8 0-2.7 35.8-4.9 80.2-4.9 44.3 0 80.1 2.2 80.1 4.9 0 2.7-35.8 4.8-80.1 4.8z"/>
		<path id="Path 89" fill-rule="evenodd" class="s72" d="m294.8 600.2c-43.5 0-78.7-2.2-78.7-4.8 0-2.7 35.2-4.8 78.7-4.8 43.4 0 78.6 2.1 78.6 4.8 0 2.6-35.2 4.8-78.6 4.8z"/>
		<path id="Path 90" fill-rule="evenodd" class="s73" d="m294.8 600.1c-42.7 0-77.1-2.1-77.1-4.7 0-2.6 34.4-4.7 77.1-4.7 42.6 0 77.1 2.1 77.1 4.7 0 2.6-34.5 4.7-77.1 4.7z"/>
		<path id="Path 91" fill-rule="evenodd" class="s73" d="m294.8 600c-41.8 0-75.6-2-75.6-4.6 0-2.6 33.8-4.7 75.6-4.7 41.7 0 75.5 2.1 75.5 4.7 0 2.6-33.8 4.6-75.5 4.6z"/>
		<path id="Path 92" fill-rule="evenodd" class="s74" d="m294.8 600c-41 0-74.1-2.1-74.1-4.6 0-2.6 33.1-4.6 74.1-4.6 40.9 0 74 2 74 4.6 0 2.5-33.1 4.6-74 4.6z"/>
		<path id="Path 93" fill-rule="evenodd" class="s75" d="m294.8 599.9c-40.1 0-72.6-2-72.6-4.5 0-2.5 32.5-4.5 72.6-4.5 40.1 0 72.5 2 72.5 4.5 0 2.5-32.4 4.5-72.5 4.5z"/>
		<path id="Path 94" fill-rule="evenodd" class="s76" d="m294.8 599.9c-39.3 0-71-2-71-4.5 0-2.5 31.7-4.5 71-4.5 39.2 0 71 2 71 4.5 0 2.5-31.8 4.5-71 4.5z"/>
		<path id="Path 95" fill-rule="evenodd" class="s77" d="m294.8 599.8c-38.5 0-69.5-2-69.5-4.4 0-2.5 31-4.4 69.5-4.4 38.4 0 69.4 1.9 69.4 4.4 0 2.4-31 4.4-69.4 4.4z"/>
		<path id="Path 96" fill-rule="evenodd" class="s78" d="m294.8 599.7c-37.6 0-68-1.9-68-4.3 0-2.4 30.4-4.4 68-4.4 37.5 0 67.9 2 67.9 4.4 0 2.4-30.4 4.3-67.9 4.3z"/>
		<path id="Path 97" fill-rule="evenodd" class="s79" d="m294.8 599.7c-36.8 0-66.5-1.9-66.5-4.3 0-2.4 29.7-4.3 66.5-4.3 36.7 0 66.4 1.9 66.4 4.3 0 2.4-29.7 4.3-66.4 4.3z"/>
		<path id="Path 98" fill-rule="evenodd" class="s80" d="m294.8 599.6c-35.9 0-64.9-1.9-64.9-4.2 0-2.4 29-4.3 64.9-4.3 35.8 0 64.8 1.9 64.8 4.3 0 2.3-29 4.2-64.8 4.2z"/>
		<path id="Path 99" fill-rule="evenodd" class="s81" d="m294.8 599.6c-35.1 0-63.4-1.9-63.4-4.2 0-2.3 28.3-4.2 63.4-4.2 35 0 63.3 1.9 63.3 4.2 0 2.3-28.3 4.2-63.3 4.2z"/>
		<path id="Path 100" fill-rule="evenodd" class="s82" d="m294.8 599.5c-34.2 0-61.9-1.8-61.9-4.1 0-2.3 27.7-4.1 61.9-4.1 34.2 0 61.8 1.8 61.8 4.1 0 2.3-27.6 4.1-61.8 4.1z"/>
		<path id="Path 101" fill-rule="evenodd" class="s83" d="m294.8 599.4c-33.4 0-60.4-1.8-60.4-4 0-2.3 27-4.1 60.4-4.1 33.3 0 60.3 1.8 60.3 4.1 0 2.2-27 4-60.3 4z"/>
		<path id="Path 102" fill-rule="evenodd" class="s84" d="m294.8 599.4c-32.6 0-58.8-1.8-58.8-4 0-2.2 26.2-4 58.8-4 32.5 0 58.7 1.8 58.7 4 0 2.2-26.2 4-58.7 4z"/>
		<path id="Path 103" fill-rule="evenodd" class="s85" d="m294.8 599.3c-31.7 0-57.3-1.7-57.3-3.9 0-2.2 25.6-4 57.3-4 31.6 0 57.2 1.8 57.2 4 0 2.2-25.6 3.9-57.2 3.9z"/>
		<path id="Path 104" fill-rule="evenodd" class="s86" d="m294.8 599.3c-30.9 0-55.8-1.8-55.8-3.9 0-2.2 24.9-3.9 55.8-3.9 30.8 0 55.7 1.7 55.7 3.9 0 2.1-24.9 3.9-55.7 3.9z"/>
		<path id="Path 105" fill-rule="evenodd" class="s87" d="m294.8 599.2c-30 0-54.3-1.7-54.3-3.8 0-2.1 24.3-3.8 54.3-3.8 29.9 0 54.2 1.7 54.2 3.8 0 2.1-24.3 3.8-54.2 3.8z"/>
		<path id="Path 106" fill-rule="evenodd" class="s88" d="m294.8 599.1c-29.2 0-52.7-1.6-52.7-3.7 0-2.1 23.5-3.8 52.7-3.8 29.1 0 52.6 1.7 52.6 3.8 0 2.1-23.5 3.7-52.6 3.7z"/>
		<path id="Path 107" fill-rule="evenodd" class="s89" d="m294.8 599.1c-28.3 0-51.2-1.7-51.2-3.7 0-2.1 22.9-3.7 51.2-3.7 28.2 0 51.1 1.6 51.1 3.7 0 2-22.9 3.7-51.1 3.7z"/>
		<path id="Path 108" fill-rule="evenodd" class="s90" d="m294.8 599c-27.5 0-49.7-1.6-49.7-3.6 0-2 22.2-3.7 49.7-3.7 27.4 0 49.6 1.7 49.6 3.7 0 2-22.2 3.6-49.6 3.6z"/>
		<path id="Path 109" fill-rule="evenodd" class="s90" d="m294.8 599c-26.6 0-48.2-1.6-48.2-3.6 0-2 21.6-3.6 48.2-3.6 26.6 0 48.1 1.6 48.1 3.6 0 2-21.5 3.6-48.1 3.6z"/>
		<path id="Path 110" fill-rule="evenodd" class="s91" d="m294.8 598.9c-25.8 0-46.6-1.6-46.6-3.5 0-2 20.8-3.5 46.6-3.5 25.7 0 46.5 1.5 46.5 3.5 0 1.9-20.8 3.5-46.5 3.5z"/>
		<path id="Path 111" fill-rule="evenodd" class="s92" d="m294.8 598.8c-25 0-45.1-1.5-45.1-3.4 0-1.9 20.1-3.5 45.1-3.5 24.9 0 45 1.6 45 3.5 0 1.9-20.1 3.4-45 3.4z"/>
		<path id="Path 112" fill-rule="evenodd" class="s93" d="m294.8 598.8c-24.1 0-43.6-1.5-43.6-3.4 0-1.9 19.5-3.4 43.6-3.4 24 0 43.5 1.5 43.5 3.4 0 1.9-19.5 3.4-43.5 3.4z"/>
		<path id="Path 113" fill-rule="evenodd" class="s94" d="m253.6 120.6c53-23.1 114.7 1.2 137.7 54.2 20.5 47 3.7 100.9-37.3 128.5 8.4 16.2 20.2 31.8 34.3 43.7-22.8-9.9-40.4-20-55-32.9-52.1 20.3-111.4-4-133.9-55.7-23.1-53 1.2-114.7 54.2-137.8z"/>
		<path id="Path 114" fill-rule="evenodd" class="s14" d="m394.8 309.2l-5.4 24.7c-0.2 0.8-0.5 0.9-1.7 0.7-1.1-0.3-1.4-0.5-1.5-1.2v-1.6c-1.9 1.4-4.2 1.8-6.1 1.4-3.9-0.9-6.4-3.9-4.9-10.8 1.6-6.9 5.1-8.6 9-7.7 1.8 0.4 3.6 1.6 4.6 3.2l2.1-9.5c0.2-0.9 0.7-0.9 2.1-0.6 1.5 0.3 2 0.6 1.8 1.4zm-7.3 14.9c0.4-1.8 0.4-2.5 0.1-3.1-0.6-1.3-1.7-2.5-3.2-2.8-2.1-0.5-4 0.1-5.1 5.1-1.1 4.9 0.4 6.3 2.5 6.7 1.5 0.4 3-0.2 4-1.1 0.5-0.5 0.9-1.1 1.3-2.9z"/>
		<path id="Path 115" fill-rule="evenodd" class="s14" d="m409.1 337c-0.2 0.9-0.7 1.2-1.7 1.3-1.2 0.2-3 0.3-5-0.2-5.3-1.1-8.5-4.4-7-11.3 1.4-6.6 5.4-8.5 10.5-7.4 4.6 1 6.6 3.9 5.9 7.3-0.8 3.7-4.3 4.7-9.3 3.6-1.1-0.3-2.2-0.6-3.3-1-0.4 3.7 1.2 5.1 3.8 5.6 3.2 0.7 5-0.2 5.5-0.1 0.6 0.2 0.8 1.3 0.6 2.2zm-9.3-10.5q1.8 0.6 3.1 0.9c3.1 0.7 4.6 0.1 5-1.7 0.4-1.8-0.6-3-2.8-3.4-2.2-0.5-4.2 0.1-5.3 4.2zm31.7-0.1l-3.5 16c-0.2 0.8-0.5 1-1.7 0.7-1.1-0.3-1.3-0.5-1.5-1.2l0.1-1.9c-2.1 1.6-4.6 2-6.5 1.6-4-0.9-5.2-3.5-4.4-7l2.5-11.5c0.2-0.9 0.7-0.9 2.2-0.6 1.4 0.3 1.9 0.6 1.7 1.5l-2.4 10.7c-0.3 1.7 0 3.3 2.2 3.7 1.5 0.4 3-0.1 4.1-1 0.5-0.3 0.9-0.9 1.1-1.7l2.2-10.2c0.2-0.8 0.7-0.9 2.2-0.5 1.4 0.3 1.9 0.5 1.7 1.4zm16.3 20.3c-0.2 1-0.7 1-2.2 0.6-1.5-0.3-1.8-0.5-1.8-1.5 0.3-2.2-0.4-4.9-2.3-7.5-2.9 1.6-4.6 3.7-5.3 5.9-0.4 0.9-0.8 0.9-2.3 0.6-1.5-0.4-1.9-0.6-1.7-1.5 0.6-2.8 3.6-6 7.1-7.5-2.5-2.7-3.7-5.8-3.2-8.3 0.2-1 0.7-1 2.3-0.7 1.4 0.4 1.8 0.6 1.7 1.5-0.3 1.9 0.2 4.1 2.2 6.4 2.7-1.3 4.1-3.1 4.6-4.9 0.3-0.9 0.8-0.9 2.3-0.6 1.5 0.4 1.9 0.6 1.7 1.5-0.5 2.5-3 4.8-6.4 6.3 2.5 2.7 3.9 7 3.3 9.7zm-103.3-100.4l-53.5 4.7q1.3-2 3-3.7c2.2-2.2 6.3-6 12.3-11.1l9.8-8.3c8.3-7 14.3-13.4 17.8-18.9 5.4-8.5 7.6-18 6.7-28.2-1.1-13.3-6.5-23.7-15.9-31.1-9.3-7.3-21.4-10.4-35.8-9.1-18.5 1.6-30.9 9.8-37 24.3-3.1 7.5-4.4 17.2-3.8 28.7 0 0.6 0.3 1.1 0.7 1.5 0.5 0.4 1 0.6 1.6 0.5l25.2-2.2c1.1-0.1 2-1.1 2-2.2-0.4-7.1 0.1-12.4 1.3-15.6 2-5.4 6.5-8.3 13.5-8.9 5.2-0.5 9.1 0.8 12.1 3.8 3.1 3 4.8 7 5.2 12.1 0.6 6.4-1.4 12.3-5.9 18.2-3.1 3.8-10.3 10.6-21.3 20.1-13.2 11.2-21.3 21.7-24.4 31.1-3.2 8.4-4.5 17.6-3.9 27.4 0 0.5 0.3 1.1 0.7 1.4 0.5 0.4 1 0.6 1.6 0.6l90.3-8c1.2-0.1 2.1-1.2 2-2.3l-2-22.9c-0.1-1.2-1.2-2-2.3-1.9zm-273.4 23.8c0.6 2.1 0.2 3.3-1.6 4.5-1.9 1.3-4.1 2.4-7 3.3-7 2.1-12.8 0.7-15.5-8.5l-7.1-23.3-3.9 1.2c-1.6 0.4-2.2-0.3-2.9-2.4-0.5-2-0.5-2.6 0.6-3.3l4.6-2.3-1-8.3c0-1.5 0.6-2.1 3.2-2.9 2.5-0.7 3.7-0.6 4.3 1.3l2.1 7.2 10.4-3.2c1.7-0.5 2.2 0.3 3 2.8 0.8 2.6 0.7 3.5-0.9 4l-10.4 3.2 6.3 21.1c1.5 5.1 4 6.2 7.9 5 2.7-0.8 4.2-2.4 5-2.7 1.2-0.3 2.4 1.6 2.9 3.3z"/>
		<path id="Path 116" fill-rule="evenodd" class="s14" d="m122.4 216.4c4.4 14.6 4 29.5 0.5 40.7-0.5 1.9-1.6 2.5-4.4 3.4-3 0.9-4.4 0.8-6-0.7-4.9-4.5-9.1-9.5-12.6-16.3 0.7 7.7 0.1 14.1-1.7 20.6-0.4 2.1-1.6 2.9-4.5 3.8-2.9 0.9-4.1 0.9-5.5-0.4-8.9-7.4-17.4-19.7-21.8-34.3-0.7-2.1 0.3-2.8 3.8-3.8 3.5-1 4.7-1.1 5.4 1 3.9 11.7 9.4 22.3 16 29.7 2.6-10.1 1.4-20.7-1-29.7-0.5-2.2 0.6-2.8 4.1-3.9 3.6-1.1 4.9-1.1 5.6 1 3.1 8.8 7.8 18.4 15.6 25.3 1.4-9.8 0.2-22.4-2.9-33.6-0.5-2.1 0.6-2.8 4-3.9 3.6-1 4.7-1 5.4 1.1zm12.4 16.2c-4.5-15.2 1.7-23.8 12.7-27.1 11.1-3.4 21 0.2 25.6 15.6 4.7 15.4-1.7 24.2-12.6 27.5-11 3.3-20.9-0.3-25.7-16zm28.9-8.7c-3.5-11.7-8.5-13-14-11.3-5.5 1.6-9 5.4-5.4 17.2 3.5 11.7 8.6 13.4 14 11.7 5.5-1.6 8.9-5.8 5.4-17.6zm317.5-91.4c-0.3 1-0.8 1.3-1.9 1.3-1.1 0.1-2.2-0.1-3.6-0.5-3.3-1-5.2-3.1-3.8-7.5l3.4-11-1.9-0.6c-0.7-0.2-0.8-0.7-0.5-1.7 0.3-0.9 0.5-1.1 1.1-1.1l2.4 0.3 1.8-3.5c0.4-0.6 0.9-0.7 2.1-0.3 1.2 0.4 1.6 0.7 1.3 1.6l-1 3.4 4.9 1.5c0.7 0.3 0.8 0.7 0.4 1.9-0.4 1.2-0.7 1.6-1.4 1.4l-4.9-1.6-3.2 10c-0.7 2.4 0 3.5 1.8 4.1 1.3 0.3 2.3 0.1 2.7 0.2 0.6 0.2 0.5 1.3 0.3 2.1zm24.5-10.6c-1.7 5.5-6.2 12.5-11.6 15.9-0.8 0.5-1.2 0.6-2.6 0.1-1.4-0.4-1.7-0.7-2-1.5-2.5-5.9-2.2-14.2-0.5-19.7 0.3-1 0.8-1 2.5-0.5 1.6 0.5 2.1 0.9 1.8 1.9-1.6 5.8-2.1 11.6-0.8 16.7 3.9-3.4 6.8-8.6 8.8-14.2 0.4-1 0.9-1 2.6-0.5 1.7 0.5 2.1 0.8 1.8 1.8z"/>
		<path id="Path 117" fill-rule="evenodd" class="s14" d="m515.3 116.7c0.8-2.5 3.2-3.3 5.3-2.7 2.2 0.7 3.7 2.7 2.9 5.3-0.8 2.6-3.2 3.4-5.4 2.7-2.1-0.6-3.6-2.7-2.8-5.3zm2 0.7c-0.5 1.6 0.3 2.6 1.4 2.9 1.1 0.3 2.3-0.1 2.8-1.6 0.5-1.6-0.3-2.6-1.4-2.9-1.1-0.4-2.3 0-2.8 1.6zm5.7 16.9l-3.5 11.1c-0.3 0.9-0.6 1.1-1.9 0.6-1.3-0.4-1.6-0.7-1.5-1.5l0.2-2c-2.2 1.4-5.1 1.9-7.8 1.1-3.2-1.1-5.3-3.7-4.2-7.4 1.1-3.5 4.9-6.7 14.5-3.4l0.2-0.7c0.6-2.1 0.1-3.8-3-4.7-3.5-1.1-5.6-0.2-6.2-0.4-0.6-0.2-0.8-1.5-0.5-2.5 0.3-1 0.9-1.4 2.2-1.4 1.6 0 4 0.3 6 0.9 5.6 1.8 7.2 4.8 5.5 10.3zm-5.8 3.5l0.6-2c-6.4-2.1-8.4-0.7-9 1.1-0.5 1.7 0.5 3.1 2.1 3.6 1.8 0.5 3.8 0 5-0.9 0.5-0.3 1-0.8 1.3-1.8zm-65.7 109.6c-0.5 2.2-0.8 2.9-2.1 2.6l-22.9-4.9c-1.3-0.2-1.4-1.3-0.9-3.6 0.1-0.6 0.3-1.1 0.8-2 4.1-6.6 12.1-14.1 21-19l-14.3-3.1c-1.4-0.3-1.3-1.1-0.9-3.3 0.5-2.3 0.8-3 2.2-2.7l22 4.7c1.4 0.3 1.4 1.4 0.9 3.8-0.3 1.5-0.9 2.2-2.3 2.8-8.4 4-16.2 10.4-21.3 17.7l17 3.6c1.2 0.3 1.3 1.1 0.8 3.4z"/>
		<path id="Path 118" fill-rule="evenodd" class="s14" d="m508.8 229.3c-2.5 11.9-8.5 22.3-15.3 28.7-1.1 1.1-2.1 1.2-4.4 0.7-2.5-0.5-3.4-1.1-3.9-2.8-1.8-5-2.8-10.1-2.6-16.2-2.4 5.6-5.4 9.9-9.1 13.7-1.1 1.4-2.3 1.5-4.7 1-2.3-0.5-3.2-1-3.7-2.4-3.3-8.7-4.6-20.6-2-32.5 0.4-1.7 1.3-1.8 4.2-1.2 2.8 0.6 3.7 1.1 3.3 2.8-1.7 9.7-2 19.3-0.2 26.9 5.7-6 8.9-13.9 10.8-21.1 0.4-1.7 1.5-1.8 4.4-1.2 2.8 0.7 3.8 1.1 3.5 2.9-1.3 7.4-1.7 15.9 1.1 23.7 4.8-6.3 8.8-15.5 11-24.6 0.4-1.7 1.5-1.8 4.3-1.2 2.9 0.6 3.7 1.1 3.3 2.8z"/>
		<path id="Path 119" fill-rule="evenodd" class="s14" d="m537.4 264.7c-0.4 1.8-1.4 2.3-3.3 2.6-2.3 0.4-5.7 0.4-9.5-0.4-10-2.2-16.1-8.2-13.3-21.4 2.7-12.4 10.2-16.1 19.8-14.1 8.8 1.9 12.6 7.4 11.2 13.8-1.5 7-8.1 8.9-17.5 6.9-2.2-0.5-4.2-1.1-6.2-1.9-0.7 7.1 2.3 9.6 7.2 10.6 6.1 1.4 9.3-0.4 10.3-0.2 1.1 0.2 1.6 2.3 1.3 4.1zm-17.9-19.8c2.4 0.8 4.4 1.3 5.9 1.7 6.1 1.2 8.8 0.2 9.5-3.3 0.8-3.3-1.2-5.5-5.2-6.4-4.3-0.9-8.1 0.3-10.2 8zm34.1-19.1c0.7-3 1.5-4 5.4-3.2 3.9 0.8 4.4 1.9 3.7 5.1-0.7 3.2-1.6 4-5.5 3.2-3.9-0.8-4.3-1.9-3.6-5.1zm-8.4 42.9l6.6-30.2c0.3-1.7 1.2-1.8 4-1.2 2.8 0.6 3.7 1.1 3.3 2.8l-6.5 30.2c-0.4 1.8-1.3 1.8-4.1 1.2-2.8-0.6-3.6-1-3.3-2.8zm-183-206.5l-10.2 43.7c-0.3 1.5-0.8 1.7-3 1.2-1.9-0.4-2.4-0.8-2.6-2l0.1-2.9c-3.4 2.4-7.5 3.1-10.9 2.3-6.9-1.6-11.3-7-8.4-19.3 2.8-12.3 9.2-15.2 16.1-13.6 3.3 0.8 6.3 3 8.1 5.8l3.9-16.8c0.4-1.6 1.3-1.6 3.9-1 2.6 0.6 3.4 1 3 2.6zm-13.2 26.2c0.7-3.1 0.6-4.3 0.1-5.5-0.9-2.3-2.8-4.4-5.5-5-3.7-0.9-7.2 0.2-9.2 9-2.1 8.7 0.6 11.2 4.3 12 2.7 0.6 5.2-0.3 7.1-2 1-0.7 1.6-1.8 2.3-5z"/>
		<path id="Path 120" fill-rule="evenodd" class="s14" d="m363 93.4c2.7-11.6 10-14.9 18.4-13 8.5 2 13.6 8 10.9 19.8-2.8 11.8-10.3 15.2-18.6 13.2-8.4-1.9-13.6-8-10.7-20zm22 5.1c2.1-8.9-0.7-11.6-4.9-12.6-4.2-1-7.8 0.2-9.9 9.2-2.1 8.9 0.5 12 4.8 12.9 4.2 1 7.9-0.5 10-9.5zm20.1-22.5c0.7-2.8 1.5-3.7 5.1-2.9 3.7 0.9 4.1 1.9 3.4 4.9-0.7 3-1.5 3.8-5.2 2.9-3.6-0.8-4-1.9-3.3-4.9zm-8.6 40.3l6.6-28.4c0.4-1.5 1.3-1.6 3.9-1 2.6 0.6 3.4 1.1 3 2.7l-6.6 28.3c-0.4 1.6-1.3 1.6-3.9 1-2.6-0.6-3.4-1-3-2.6z"/>
		<path id="Path 121" fill-rule="evenodd" class="s14" d="m412.9 121.3c-1.6-1.1-2.3-2-1.9-3.7 0.4-1.7 1.8-3.2 2.8-3 0.9 0.3 3.2 3.3 9.5 4.8 3.7 0.8 5.8 0 6.4-2.6 0.5-2-0.5-3.7-5.8-6.1-5.9-2.6-9.8-6-8.4-12.2 1.2-5 6-8.7 14.7-6.7 3 0.7 5.4 1.7 7.3 2.9 1.7 1.1 2.2 2 1.9 3.6-0.4 1.7-1.7 3.3-2.7 3-1-0.2-3.1-3.1-8.6-4.4-3.4-0.8-5.5 0.6-5.9 2.5-0.5 2.1 1 3.9 5.5 5.9 5.9 2.7 10.1 6.1 8.6 12.6-1.2 5.3-5.9 8.8-15 6.6-3.5-0.8-6.3-1.9-8.4-3.2zm-101.5 230.5c1-2.8 5.4-4.1 7.1-7-6.9-2-13.3-4.9-18.2-9-1.5-1.3-3.6-2.5-3.9-4.6 8.4 3.3 18.7 3.6 29.4 3.1 6.1-0.3 12.9-1.1 16.4-3.2 0.5-0.3 1.4-0.1 2.2 0.1 3.8 1.1 12.1 5.3 11.4 9.3-0.7 4.2-8.8 3-13.6 3-12 0-21.9 4.9-30.8 8.3zm66.1 34.1c-6.9 3.4-14.1 0.3-21.4-1.8-7-2-14.5-4.5-22.3-4.8-7.6-0.4-14.9-0.4-21.5 0.7-6.7 1.2-13.3 3.4-19.3 2.9-1.8-0.1-5-2.5-6.9-4-2.1-1.7-4.5-2.9-4.7-5.3 1.3-1.1 3.3-1.1 5-1.2 12.7-1.3 26-1.3 38.7-1.2 10.4 0 25.8 0.6 37 1.8 8.6 0.9 14 5.1 15.4 12.9zm-258.4-281.3c0.6 0.6 0.6 1.6 0.8 2.4 0.8 4.1 1.6 8.7 2.5 13.1 0.6 3.2 1 5.9 3.2 6.6 3 0.1 7.6-0.7 8-3.4-0.1-2-1.1-4.8-1-6.5 1.2-0.6 3-1.1 4.5-1.2 0.9 2.4 1.1 5.9 1.6 8.3 2.8 0.4 7.7-0.6 10.6-2-0.1-3-1.8-6.1-2.6-8.6 0.9-1.1 2.9-1.4 4.4-2.1 0.5 1 1.1 2.4 1.5 3.5 0.7 2.1 1.4 5.5 1.4 7.7 0.1 1.5 0.3 2.9-0.7 3.7-0.5 0.5-1.1 0.6-1.9 1.1-2.5 1.5-8.3 3-11.9 2.7-0.6 0-1.9-0.9-2.6-0.7-0.6 0.1-1.1 1-1.9 1.5-2.6 1.5-7.9 2.3-11.2 2.1-1-0.5-2.3-0.8-3.2-1.7-0.1-0.1-0.1-0.5-0.3-0.7-0.2-0.2-0.4-0.2-0.5-0.3-0.1-0.2-0.2-0.6-0.4-0.9-1.5-2.6-2.1-7.7-2.9-11.6-0.8-3.9-1.6-7.9-2.1-11.3 0.8-1 3.2-1.1 4.7-1.7z"/>
		<path id="Path 122" fill-rule="evenodd" class="s14" d="m164.8 125.4c-1.3 0.5-3.7 1-5.1 1-1.7-8.8-3.6-18.8-5.3-27.7 0.6-1.1 2.8-1.2 4.3-1.6 0.1 0 0.1-0.1 0.3-0.1 0.6 0 0.8 2 1 3.1 1.6 8.1 3.6 18 4.8 25.3zm-20.3-19.7c-1.3-0.6-2.5-1.2-3.7-1.9 0.7-1.1 1.3-2.2 1.8-3.4 0.5-0.2 0.9 0.4 1.3 0.6 0.9 0.5 2.1 0.7 2.3 1.3 0.4 1-1.6 2.5-1.7 3.4z"/>
		<path id="Path 123" fill-rule="evenodd" class="s14" d="m150.7 106.3c-0.4 1.4-1.4 2.3-2 3.6-0.6 0-1.2-0.4-1.8-0.8-0.5-0.3-1.3-1-1.8-0.9-1 0.2-1.1 2.2-1.9 2.8-0.9 0.2-1.6-0.4-2.2-0.8-0.6-0.3-1.3-0.6-1.8-1.1 0.3-0.6 0.6-1.1 1.1-1.8 0.2-0.4 0.6-1.7 1.1-1.7 0.3-0.1 1.3 0.6 1.7 0.9 0.5 0.2 1.2 0.9 1.7 0.8 0.8-0.1 1.2-2.4 2.1-3.1 1.4 0.5 2.4 1.5 3.8 2.1zm-24.5 6.1c0.5-1.5 1.6-2.6 2.1-4.1 0.8 0.1 1.3 0.7 2.3 1.3 0.6 0.3 1.9 0.8 2 1.3 0.2 0.6-0.8 1.4-1.1 1.9-0.3 0.5-0.6 1.7-1.1 1.9-0.6 0.1-1.9-0.8-2.3-1-0.7-0.4-1.3-0.8-1.9-1.3zm-23.1 8.7c-0.3 1.6-1.5 2.6-2.1 4-1.7-0.2-2.8-1.4-4.2-2 0.2-1.7 1.5-2.7 2.1-4.1 0.8-0.1 1.4 0.6 2.2 1 0.7 0.5 1.4 0.7 2 1.1z"/>
		<path id="Path 124" fill-rule="evenodd" class="s14" d="m91.2 140.7q-0.5-2.7-1-5.4 0.1 0 0.2 0c0.2-0.5 0.1-1.2-0.1-2 0.4-0.5 0.4-1.6 0.6-2.6 0.2-1 0.2-2.3 0.9-2.5 0.8-0.3 1.1 0.3 2 0.2 0.5 0.6 1.4-0.1 1.9 0.5 0.2 0.4-0.1 1.9-0.2 2.5-0.1 0.9-0.1 1.8-0.1 2.9 0 1.7 0.6 2.9 1.2 3.9 1.8 3.2 8.8 1.7 11.4-0.7 0.5-0.6 0.9-1.4 1.4-2.1 0.6-4.1-2.2-8-3.5-11.4 1.3-0.9 3-2 4.6-2.4 2.2 3.6 4.8 9.8 3.9 14.5-0.2 1.3-0.5 2.1-0.8 3.1-1.4 2.6-4.4 5-8.3 6.2-2.6 0.8-5.8 0.9-7.6 0.5-1.3-0.3-2.3-0.8-3.3-1.5-1.1-0.8-1.6-1.5-2.4-2.4-0.2-0.6-0.2-1.4-0.8-1.3zm77.8-5.9q0 0.3 0.1 0.6c-1.4 0.3-3.4 1.5-4.6 2.1-0.4 0.2-0.8 0.2-1.2 0.4-0.9 0.5-2 1.7-2.7 1.5-0.4-0.1-1.1-1.8-1.1-2 0.1-1 1.6-0.6 1.8-1.5-0.5-1-1.2-1.3-1.6-2.3-1.4-4 3-6.7 6.7-5.3-0.1 0.9 0.1 1.9-0.7 2.4-1.9-0.2-4.4 0.6-3.1 2.8 1.1 1.4 4.1-0.1 5.3-0.6 0.5 0.4 0.3 1.8 1.1 1.9zm56.6-70.2l4.1 21.9 2.7-0.5 1.9 11.6-3.6 0.7-1.8-8.1-17.6 3.4 1.4 8.1-3.7 0.7-2.3-11.5 2.1-0.4q1.2-2.8 1.5-5.7c0.4-3.3 0.3-6.8-0.4-10.4l-1.3-6.6zm-11.4 10.1c0.7 3.4 0.8 6.7 0.5 9.7-0.2 1.9-0.6 3.6-1.1 5.1l11.7-2.2-3.5-18.3-8.4 1.5z"/>
		<path id="Path 125" fill-rule="evenodd" class="s95" d="m225.6 64.6l4.1 21.9 2.7-0.5 1.9 11.6-3.6 0.7-1.8-8.1-17.6 3.4 1.4 8.1-3.7 0.7-2.3-11.5 2.1-0.4q1.2-2.8 1.5-5.7c0.4-3.3 0.3-6.8-0.4-10.4l-1.3-6.6zm-11.4 10.1c0.7 3.4 0.8 6.7 0.5 9.7-0.2 1.9-0.6 3.6-1.1 5.1l11.7-2.2-3.5-18.3-8.4 1.5z"/>
		<path id="Path 126" fill-rule="evenodd" class="s96" d="m233.6 63.4c1.8-0.7 5-1.6 8-2.1 4.3-0.8 11.4-1.5 12.5 4.2 0.6 3.1-1.5 5.5-4.2 6.7v0.1c3.8-0.2 6.9 1.4 7.6 5.1 1.3 6.6-6.9 9-11.9 10-2.8 0.5-5.8 0.9-7.2 1zm6.4 9.5l3.4-0.6c3.4-0.7 6.8-2.3 6.2-5.3-0.5-2.5-2.9-3.3-7.5-2.5-1.6 0.3-2.5 0.6-3.6 0.9zm2.2 11.7c1.3-0.1 2.3-0.2 3.8-0.5 3.1-0.6 7.5-2.2 6.8-5.8-0.7-3.7-4.5-3.8-8.9-3l-3.3 0.7z"/>
		<path id="Path 127" fill-rule="evenodd" class="s96" d="m278.8 80.8l-1-3.2-0.2 0.1c-1 2.2-3.4 4.5-7 5.2-5.1 1-8.5-2.1-9.1-5.8-1.2-6.1 3.6-10.5 13.4-12.3l-0.1-0.6c-0.4-2.1-1.7-5.7-6.9-4.7-2.3 0.4-4.6 1.6-6.2 3.1l-1.6-2.8c1.8-1.8 4.7-3.3 7.9-3.9 7.7-1.4 10.6 3.5 11.6 8.6l1.8 9.5c0.4 2.2 0.9 4.3 1.6 6zm-3.2-12.9c-5 0.9-10.6 2.9-9.6 7.8 0.5 3 2.8 4 5.2 3.6 3.3-0.6 4.9-3.1 5.3-5.4 0-0.5 0.1-1.1 0-1.5z"/>
		<path id="Path 128" fill-rule="evenodd" class="s14" d="m147.6 357.6l0.9 3.3q1.1 5 2 7 2-0.5 3.4-1.9 1.5-1.3 0.8-4.2l-0.8-5.6 3.7-0.8 1 6.5q0.2 2 0.1 2.8-0.1 0.8-0.6 1.8-1.2 2.5-6.4 4.2 0.9 2 3 2.8 2 0.9 4.6 0.3 3.1-0.7 4.7-3.2 1.6-2.6 0.9-7.7l-1.2-8.9 3.7-0.8 1 7.7q0.6 4.4 0.1 7.5-0.4 3.1-2.6 5.4-2.2 2.2-6.1 3.1-5.4 1.2-9-1.9-3.6-3.1-5.4-11l-1.5-5.5zm27 12q1 0.1 2.2-0.2 1.4-0.3 1.7-1 0.4-0.7 0-2.2l-2.6-11.8q-1.7 0.4-4 1.3l-1-3q4.3-1.6 8.8-2.6 4.5-1 7.2-0.8 2.6 0.3 4.3 1.9 1.7 1.7 2.7 5.8l2.5 11.1-3.6 0.8-2.3-10.1q-0.8-3.4-1.8-4.7-0.9-1.2-2.8-1.5-1.8-0.2-4.5 0.4l-1.9 0.5 2.8 12.3q0.4 2 0.3 3.1-0.2 1.1-1.1 2-1 0.9-3.2 1.4-1.9 0.4-3.7 0.2zm26.8-24.1l2.3 10.6-3.7 0.8-2.4-10.6zm9.8-2.1l2.3 10.5-3.7 0.9-2.4-10.6zm28.4 15.1l-17.8 4-4.5-20q4.2-1.7 7.4-2.4 3.8-0.8 6.4-0.2 2.6 0.7 3.9 2.4 1.4 1.7 2.1 4.7zm-4.4-2.2l-1.8-8q-0.8-3.6-2.6-4.6-1.7-1-5.7-0.3-1.8 0.4-3.6 1.1l3.2 14.1z"/>
	</g>
</svg>