<?xml version="1.0" encoding="utf-8"?>
<!-- Generator: Adobe Illustrator 21.0.0, SVG Export Plug-In . SVG Version: 6.00 Build 0)  -->
<svg version="1.1" id="Camada_1" xmlns="http://www.w3.org/2000/svg" xmlns:xlink="http://www.w3.org/1999/xlink" x="0px" y="0px"
	 viewBox="0 0 243 68" style="enable-background:new 0 0 243 68;" xml:space="preserve">
<style type="text/css">
	.st0{clip-path:url(#SVGID_2_);}
	.st1{clip-path:url(#SVGID_4_);fill:#182C43;}
	.st2{clip-path:url(#SVGID_6_);}
	.st3{clip-path:url(#SVGID_8_);fill:#F15944;}
	.st4{clip-path:url(#SVGID_10_);}
	.st5{clip-path:url(#SVGID_12_);fill:#182C43;}
</style>
<g>
	<g>
		<defs>
			<path id="SVGID_1_" d="M32.6,65.5c-16.6,0-30-13.4-30-30c0-16.6,13.4-30,30-30s30,13.4,30,30C62.6,52.1,49.1,65.5,32.6,65.5z
				 M32.6,61.5c14.4,0,26-11.6,26-26c0-14.4-11.6-26-26-26s-26,11.6-26,26C6.6,49.9,18.2,61.5,32.6,61.5z"/>
		</defs>
		<clipPath id="SVGID_2_">
			<use xlink:href="#SVGID_1_"  style="overflow:visible;"/>
		</clipPath>
		<g class="st0">
			<defs>
				<rect id="SVGID_3_" x="-86.4" y="-96.8" width="460" height="260"/>
			</defs>
			<clipPath id="SVGID_4_">
				<use xlink:href="#SVGID_3_"  style="overflow:visible;"/>
			</clipPath>
			<rect x="-2.4" y="0.5" class="st1" width="70" height="70"/>
		</g>
	</g>
	<g>
		<defs>
			<path id="SVGID_5_" d="M45,58.4c-1.8,1-3.7,1.7-5.7,2.3c2.3-3.5,3.6-7.7,3.5-12.2C39,54.9,32.2,59.4,24.3,60.2
				c-2.3-0.8-4.5-1.9-6.4-3.2l4.6-0.2c10.4-0.4,18.8-8.1,20.1-17.8l-0.1-2.6c-3.6,7.8-11.4,13.4-20.6,13.7l-10.6,0.4
				c-0.7-0.9-1.3-1.9-1.8-2.9l12.3-0.4c9.9-0.3,17.8-7.6,19.5-16.9c-4,6.2-10.9,10.4-18.9,10.7L7.2,41.3c-0.2-0.8-0.3-1.6-0.4-2.5
				l15.5-0.5c9-0.3,16.5-6.3,19.2-14.4L41,9.9l-0.3-7.2c0-0.1,0.1-0.3,0.3-0.2l4,1.3c0.2,0,0.3,0.2,0.3,0.3l0.4,10.8L46.8,48
				C47,51.7,46.3,55.2,45,58.4z"/>
		</defs>
		<clipPath id="SVGID_6_">
			<use xlink:href="#SVGID_5_"  style="overflow:visible;"/>
		</clipPath>
		<g class="st2">
			<defs>
				<rect id="SVGID_7_" x="-86.4" y="-96.8" width="460" height="260"/>
			</defs>
			<clipPath id="SVGID_8_">
				<use xlink:href="#SVGID_7_"  style="overflow:visible;"/>
			</clipPath>
			<rect x="1.8" y="-2.5" class="st3" width="50.1" height="68.2"/>
		</g>
	</g>
	<g>
		<defs>
			<path id="SVGID_9_" d="M240.4,43.1v13.6h-3.5v-1.1c-1.1,1-2.4,1.4-3.8,1.4c-2,0-3.9-0.9-5.1-2.3c-1.1-1.2-1.7-2.9-1.7-4.8
				c0-4,3-7.1,6.7-7.1c1.5,0,2.9,0.5,4,1.4v-1.1H240.4z M236.8,52v-4.1c-0.8-1-2-1.7-3.4-1.7c-2.1,0-3.5,1.8-3.5,3.7
				c0,2.1,1.5,3.7,3.6,3.7C234.9,53.6,236.1,53,236.8,52z M219,38.3c0,1.3,1.1,2.3,2.4,2.3c1.3,0,2.4-1,2.4-2.3s-1.1-2.3-2.4-2.3
				C220.1,36,219,37,219,38.3z M223.2,43.1h-3.6v13.6h3.6V43.1z M206,43.1h-3.8l6.2,13.6h2.5l6.2-13.6h-3.8l-3.7,8.3L206,43.1z
				 M199.8,43.1v13.6h-3.5v-1.1c-1.1,1-2.4,1.4-3.8,1.4c-2,0-3.9-0.9-5.1-2.3c-1.1-1.2-1.7-2.9-1.7-4.8c0-4,3-7.1,6.7-7.1
				c1.5,0,2.9,0.5,4,1.4v-1.1H199.8z M196.2,52v-4.1c-0.8-1-2-1.7-3.4-1.7c-2.1,0-3.5,1.8-3.5,3.7c0,2.1,1.5,3.7,3.6,3.7
				C194.3,53.6,195.5,53,196.2,52z M173.1,56.7v-8.8c0.5-0.7,1.8-1.7,3.3-1.7c0.8,0,1.6,0.3,2,0.8c0.5,0.5,0.8,1.2,0.8,2.5v7.2h3.6
				v-6.9c0-2.3-0.5-3.7-1.4-4.8c-1.1-1.3-2.8-2.2-4.7-2.2c-1.5,0-2.8,0.5-3.8,1.4v-1.1h-3.5v13.6H173.1z M161,38.3
				c0,1.3,1.1,2.3,2.4,2.3c1.3,0,2.4-1,2.4-2.3s-1.1-2.3-2.4-2.3C162.1,36,161,37,161,38.3z M165.2,43.1h-3.6v13.6h3.6V43.1z
				 M157.4,56.7h-3.5v-1.1c-1.1,1-2.4,1.4-3.8,1.4c-2,0-3.9-0.9-5.1-2.3c-1.1-1.2-1.7-2.9-1.7-4.8c0-4,3-7.1,6.7-7.1
				c1.5,0,2.8,0.4,3.8,1.3v-7.3h3.6V56.7z M153.7,52v-4.1c-0.8-1-2-1.7-3.4-1.7c-2.1,0-3.5,1.8-3.5,3.7c0,2.1,1.5,3.7,3.6,3.7
				C151.8,53.6,153,53,153.7,52z M130.6,56.7v-8.8c0.5-0.7,1.8-1.7,3.3-1.7c0.8,0,1.6,0.3,2,0.8c0.5,0.5,0.8,1.2,0.8,2.5v7.2h3.6
				v-6.9c0-2.3-0.5-3.7-1.4-4.8c-1.1-1.3-2.8-2.2-4.7-2.2c-1.5,0-2.8,0.5-3.8,1.4v-1.1H127v13.6H130.6z M122.8,43.1v13.6h-3.5v-1.1
				c-1.1,1-2.4,1.4-3.8,1.4c-2,0-3.9-0.9-5.1-2.3c-1.1-1.2-1.7-2.9-1.7-4.8c0-4,3-7.1,6.7-7.1c1.5,0,2.9,0.5,4,1.4v-1.1H122.8z
				 M119.2,52v-4.1c-0.8-1-2-1.7-3.4-1.7c-2.1,0-3.5,1.8-3.5,3.7c0,2.1,1.5,3.7,3.6,3.7C117.3,53.6,118.5,53,119.2,52z M104.2,51.8
				c-0.6,0.9-1.8,1.8-3.2,1.8c-2.2,0-3.8-1.6-3.8-3.7c0-2.1,1.6-3.7,3.7-3.7c1.3,0,2.4,0.7,3.1,1.6l2.6-2.3
				c-1.3-1.6-3.4-2.7-5.7-2.7c-4.1,0-7.3,3.1-7.3,7.1c0,3.9,3.1,7.1,7.3,7.1c2.5,0,4.6-0.9,6.2-3.1L104.2,51.8z M77.9,54.1
				c2,1.8,4.5,2.9,7.1,2.9c3.5,0,6.6-2.4,6.6-5.9c0-6.6-9-5.6-9-8.8c0-1.5,1.6-2.1,3-2.1c1.3,0,2.6,0.6,3.4,1.3l2-2.8
				c-1.8-1.4-3.7-1.8-5.7-1.8c-3.2,0-6.5,2-6.5,5.5c0,2.2,1.2,3.6,2.8,4.5c2.6,1.5,6.3,1.8,6.3,4.4c0,1.4-1.2,2.5-2.9,2.5
				c-1.8,0-3.5-0.9-4.6-2.2L77.9,54.1z M210.9,25.8c-0.6,0.9-1.8,1.8-3.2,1.8c-2.2,0-3.8-1.6-3.8-3.7c0-2.1,1.6-3.7,3.7-3.7
				c1.3,0,2.4,0.7,3.1,1.6l2.6-2.3c-1.3-1.6-3.4-2.7-5.7-2.7c-4.1,0-7.3,3.1-7.3,7.1c0,3.9,3.1,7.1,7.3,7.1c2.5,0,4.6-0.9,6.2-3.1
				L210.9,25.8z M193,12.3c0,1.3,1.1,2.3,2.4,2.3s2.4-1,2.4-2.3s-1.1-2.3-2.4-2.3S193,11,193,12.3z M197.2,17.1h-3.6v13.6h3.6V17.1z
				 M189.3,27.6c-0.3,0.1-1,0.1-1.5,0.1c-0.9,0-1.5-0.3-1.8-0.7c-0.3-0.4-0.4-0.9-0.4-1.7v-5.2h4.5v-3.1h-4.5v-3.8h-3.6v3.8h-3.8
				v3.1h3.8V25c0,1.9,0.3,3.1,1,4.1c0.9,1.2,2.5,2,4.7,2c0.7,0,1.8-0.1,2.3-0.3L189.3,27.6z M165.9,30.7v-8.8
				c0.5-0.7,1.8-1.7,3.3-1.7c0.8,0,1.6,0.3,2,0.8c0.5,0.5,0.8,1.2,0.8,2.5v7.2h3.6v-6.9c0-2.3-0.5-3.7-1.4-4.8
				c-1.1-1.3-2.8-2.2-4.7-2.2c-1.5,0-2.8,0.5-3.8,1.4v-1.1h-3.5v13.6H165.9z M149.9,22.2h5.6c-0.1-1.2-1.2-2.4-2.7-2.4
				C151.3,19.8,150.1,20.9,149.9,22.2z M156.8,26.5l2.1,2.1c-1.3,1.6-3.5,2.4-5.6,2.4c-4.1,0-7.1-2.8-7.1-7.1c0-3.8,2.6-7.1,6.6-7.1
				c3.8,0,6.4,3.2,6.4,6.9c0,0.4,0,0.7-0.1,1h-9.4c0.2,1.9,1.7,3.2,3.7,3.2C154.9,28.1,156.2,27.2,156.8,26.5z M133.6,21.9
				c0.5-0.7,1.8-1.7,3.3-1.7c0.8,0,1.6,0.3,2,0.8c0.5,0.5,0.8,1.2,0.8,2.5v7.2h3.6v-6.9c0-2.3-0.5-3.7-1.4-4.8
				c-1.1-1.3-2.8-2.2-4.7-2.2c-1.4,0-2.7,0.5-3.7,1.3v-7.3H130v19.9h3.6V21.9z M125.8,27.6c-0.3,0.1-1,0.1-1.5,0.1
				c-0.9,0-1.5-0.3-1.8-0.7c-0.3-0.4-0.4-0.9-0.4-1.7v-5.2h4.5v-3.1H122v-3.8h-3.6v3.8h-3.8v3.1h3.8V25c0,1.9,0.3,3.1,1,4.1
				c0.9,1.2,2.5,2,4.7,2c0.7,0,1.8-0.1,2.3-0.3L125.8,27.6z M108.3,17.1V26c-0.5,0.6-1.6,1.7-3.2,1.7c-0.7,0-1.5-0.2-2-0.8
				c-0.4-0.5-0.7-1.1-0.7-2.3v-7.3h-3.6v7.2c0,2,0.5,3.4,1.4,4.5c1.1,1.3,2.7,2.2,4.6,2.2c1.3,0,2.6-0.4,3.7-1.4v1.1h3.5V17.1H108.3
				z M87.2,17.2L84.7,23h5L87.2,17.2z M81.5,30.7H78v-1.1l7.9-18.5h2.7l7.9,18.5v1.1H93l-1.8-4.3h-7.9L81.5,30.7z"/>
		</defs>
		<clipPath id="SVGID_10_">
			<use xlink:href="#SVGID_9_"  style="overflow:visible;"/>
		</clipPath>
		<g class="st4">
			<defs>
				<rect id="SVGID_11_" x="-86.4" y="-96.8" width="460" height="260"/>
			</defs>
			<clipPath id="SVGID_12_">
				<use xlink:href="#SVGID_11_"  style="overflow:visible;"/>
			</clipPath>
			<rect x="72.9" y="5" class="st5" width="172.6" height="57"/>
		</g>
	</g>
</g>
</svg>
