<svg width="18" height="18" viewBox="0 0 18 18" fill="none" xmlns="http://www.w3.org/2000/svg">
<mask id="mask0_413_344" style="mask-type:alpha" maskUnits="userSpaceOnUse" x="0" y="0" width="18" height="18">
<rect width="18" height="18" fill="#D9D9D9"/>
</mask>
<g mask="url(#mask0_413_344)">
<path d="M11.6307 10.5868L14.2354 8.33677L15.3171 8.43764L12.5076 10.8592L13.3384 14.5243L12.421 13.9674L11.6307 10.5868ZM10.1999 6.16458L9.47011 4.44239L9.88542 3.41846L11.0768 6.24671L10.1999 6.16458ZM5.51236 12.6189L7.87486 11.1939L10.2374 12.6376L9.61861 9.93764L11.6999 8.13764L8.96236 7.89389L7.87486 5.34389L6.78736 7.87514L4.04986 8.11889L6.13111 9.93764L5.51236 12.6189ZM4.36861 14.1924L5.29898 10.2073L2.20654 7.52902L6.27961 7.17558L7.87486 3.41846L9.47011 7.17558L13.5432 7.52902L10.4507 10.2073L11.3811 14.1924L7.87486 12.0766L4.36861 14.1924Z" fill="#F15640"/>
</g>
</svg>
