<svg width="16" height="16" viewBox="0 0 16 16" fill="none" xmlns="http://www.w3.org/2000/svg">
<g clip-path="url(#clip0_413_331)">
<path fill-rule="evenodd" clip-rule="evenodd" d="M2.99998 7.00053H1.99998V8.00047H2.99998V7.00053ZM2.99729 11.2483L3.75169 12.0022L4.50584 11.2483L3.75169 10.4945L2.99729 11.2483ZM12.5962 4.11109L11.8891 3.40409L11.1819 4.11109L11.8891 4.81805L12.5962 4.11109ZM3.99729 3.75173L4.75169 4.50657L5.50584 3.75173L4.75169 2.99787L3.99729 3.75173ZM7.99998 1.41056e-08C6.41759 -9.39261e-05 4.87072 0.46903 3.55497 1.34805C2.23923 2.22706 1.21371 3.47649 0.608118 4.93831C0.00252193 6.40014 -0.155954 8.00872 0.152731 9.56061C0.461416 11.1125 1.2234 12.538 2.34231 13.6569C3.46123 14.7757 4.88682 15.5376 6.4388 15.8463C7.99079 16.155 9.59946 15.9965 11.0614 15.391C12.5233 14.7854 13.7728 13.7599 14.6519 12.4443C15.5309 11.1286 16.0001 9.58182 16 7.99953C15.9999 5.87794 15.157 3.84327 13.6568 2.34308C12.1565 0.842889 10.1217 6.36589e-05 7.99998 1.41056e-08ZM7.99998 14.9991C6.61564 14.999 5.26242 14.5885 4.11143 13.8194C2.96044 13.0502 2.06336 11.9571 1.53364 10.6782C1.00392 9.39933 0.865351 7.99208 1.13544 6.63443C1.40554 5.27678 2.07217 4.0297 3.05104 3.05088C4.02991 2.07207 5.27707 1.40548 6.6348 1.1354C7.99253 0.865323 9.39986 1.00389 10.6788 1.53358C11.9578 2.06326 13.051 2.96028 13.8201 4.11121C14.5893 5.26213 14.9999 6.61527 15 7.99953C15.0001 8.91875 14.8191 9.829 14.4673 10.6783C14.1156 11.5275 13.6 12.2992 12.9499 12.9492C12.2999 13.5992 11.5282 14.1148 10.6789 14.4665C9.82955 14.8182 8.91926 14.9992 7.99998 14.9991ZM6.99998 14.0001H7.99998V13.0002H6.99998V14.0001ZM11.1819 11.8889L11.8891 12.5959L12.5962 11.8889L11.8891 11.1819L11.1819 11.8889ZM7.99998 7.99953V2.00083H6.99998V9.00041H13V7.99953H7.99998Z" fill="#F15640"/>
</g>
<defs>
<clipPath id="clip0_413_331">
<rect width="16" height="16" fill="white"/>
</clipPath>
</defs>
</svg>
