<svg width="16" height="16" viewBox="0 0 16 16" fill="none" xmlns="http://www.w3.org/2000/svg">
<mask id="mask0_413_339" style="mask-type:alpha" maskUnits="userSpaceOnUse" x="0" y="0" width="16" height="16">
<rect width="16" height="16" fill="#D9D9D9"/>
</mask>
<g mask="url(#mask0_413_339)">
<path d="M6.22243 14.0669C5.07376 14.0669 4.14771 13.9164 3.44426 13.6153C2.74082 13.3142 2.3891 12.919 2.3891 12.4298C2.3891 12.1708 2.50598 11.9314 2.73976 11.7118C2.97354 11.4921 3.30326 11.3019 3.72893 11.1413L4.43276 11.7888C4.22332 11.8571 4.00382 11.9479 3.77426 12.0611C3.54482 12.1744 3.36771 12.3007 3.24293 12.4399C3.2976 12.6169 3.63671 12.7879 4.26026 12.9528C4.88371 13.1178 5.53671 13.2003 6.21926 13.2003C6.94615 13.2003 7.61582 13.1178 8.22826 12.9528C8.8406 12.7879 9.16304 12.6003 9.1956 12.3899C9.07249 12.2772 8.88915 12.1641 8.6456 12.0509C8.40193 11.9377 8.17543 11.8469 7.9661 11.7784L8.67626 11.1208C9.12837 11.2772 9.47132 11.4708 9.7051 11.7016C9.93887 11.9324 10.0558 12.1741 10.0558 12.4269C10.0558 12.917 9.70404 13.3129 9.0006 13.6144C8.29715 13.9161 7.3711 14.0669 6.22243 14.0669ZM6.2391 10.9836C7.29887 10.1801 8.09437 9.36798 8.6256 8.54709C9.15682 7.72609 9.42243 6.92759 9.42243 6.15159C9.42243 5.04571 9.07904 4.21071 8.39226 3.64659C7.70548 3.08237 6.98326 2.80026 6.2256 2.80026C5.46793 2.80026 4.74465 3.08254 4.05576 3.64709C3.36687 4.21154 3.02243 5.04698 3.02243 6.15343C3.02243 6.88721 3.29015 7.66009 3.8256 8.47209C4.36104 9.28409 5.16554 10.1213 6.2391 10.9836ZM6.22243 12.0669C4.85654 11.0459 3.83732 10.0368 3.16476 9.03959C2.4921 8.04248 2.15576 7.08015 2.15576 6.15259C2.15576 5.46559 2.27843 4.85971 2.52376 4.33493C2.76909 3.81015 3.08787 3.37059 3.4801 3.01626C3.87243 2.66204 4.30976 2.39304 4.7921 2.20926C5.27432 2.02548 5.75143 1.93359 6.22343 1.93359C6.69543 1.93359 7.17221 2.02548 7.65376 2.20926C8.13543 2.39304 8.57243 2.66204 8.96476 3.01626C9.35698 3.37059 9.67576 3.81032 9.9211 4.33543C10.1664 4.86054 10.2891 5.46593 10.2891 6.15159C10.2891 7.07926 9.95276 8.04176 9.2801 9.03909C8.60754 10.0364 7.58832 11.0457 6.22243 12.0669ZM6.2256 7.12976C6.5226 7.12976 6.77493 7.02698 6.9826 6.82143C7.19037 6.61587 7.29426 6.36243 7.29426 6.06109C7.29426 5.75987 7.19015 5.50543 6.98193 5.29776C6.77371 5.08998 6.52054 4.98609 6.22243 4.98609C5.92754 4.98609 5.67521 5.09298 5.46543 5.30676C5.25554 5.52065 5.1506 5.77104 5.1506 6.05793C5.1506 6.35026 5.25554 6.60198 5.46543 6.81309C5.67521 7.02421 5.9286 7.12976 6.2256 7.12976Z" fill="#F15640"/>
</g>
</svg>
