<svg width="16" height="16" viewBox="0 0 16 16" fill="none" xmlns="http://www.w3.org/2000/svg">
<mask id="mask0_413_456" style="mask-type:alpha" maskUnits="userSpaceOnUse" x="0" y="0" width="16" height="16">
<rect width="16" height="16" fill="#D9D9D9"/>
</mask>
<g mask="url(#mask0_413_456)">
<path d="M7.3335 11.334H8.66683V7.33398H7.3335V11.334ZM8.00016 6.00065C8.18905 6.00065 8.34738 5.93676 8.47516 5.80898C8.60294 5.68121 8.66683 5.52287 8.66683 5.33398C8.66683 5.1451 8.60294 4.98676 8.47516 4.85898C8.34738 4.73121 8.18905 4.66732 8.00016 4.66732C7.81127 4.66732 7.65294 4.73121 7.52516 4.85898C7.39738 4.98676 7.3335 5.1451 7.3335 5.33398C7.3335 5.52287 7.39738 5.68121 7.52516 5.80898C7.65294 5.93676 7.81127 6.00065 8.00016 6.00065ZM8.00016 14.6673C7.07794 14.6673 6.21127 14.4923 5.40016 14.1423C4.58905 13.7923 3.8835 13.3173 3.2835 12.7173C2.6835 12.1173 2.2085 11.4118 1.8585 10.6007C1.5085 9.78954 1.3335 8.92287 1.3335 8.00065C1.3335 7.07843 1.5085 6.21176 1.8585 5.40065C2.2085 4.58954 2.6835 3.88398 3.2835 3.28398C3.8835 2.68398 4.58905 2.20898 5.40016 1.85898C6.21127 1.50898 7.07794 1.33398 8.00016 1.33398C8.92238 1.33398 9.78905 1.50898 10.6002 1.85898C11.4113 2.20898 12.1168 2.68398 12.7168 3.28398C13.3168 3.88398 13.7918 4.58954 14.1418 5.40065C14.4918 6.21176 14.6668 7.07843 14.6668 8.00065C14.6668 8.92287 14.4918 9.78954 14.1418 10.6007C13.7918 11.4118 13.3168 12.1173 12.7168 12.7173C12.1168 13.3173 11.4113 13.7923 10.6002 14.1423C9.78905 14.4923 8.92238 14.6673 8.00016 14.6673Z" fill="#F15640"/>
</g>
</svg>
