<svg width="17" height="15" viewBox="0 0 17 15" fill="none" xmlns="http://www.w3.org/2000/svg">
<g clip-path="url(#clip0_413_464)">
<path d="M0.851982 13.9653C0.66679 13.7575 0.503329 13.4646 0.500494 13.2548V4.85027C0.492935 4.56208 0.572303 4.41846 0.726316 4.19264C0.851037 4.01028 0.9682 3.87422 1.1156 3.77312C1.45575 3.53974 1.95841 3.49156 3.08185 3.49156H4.51237V2.50512C4.51237 1.64624 4.54166 1.47522 4.73819 1.18799C5.20968 0.498237 5.32212 0.478395 8.59323 0.50863C11.3692 0.535087 11.5346 0.54737 11.7972 0.742956C12.3831 1.18043 12.4851 1.42515 12.522 2.49L12.556 3.47738L14.0441 3.50951C15.6636 3.54447 15.8157 3.5936 16.2929 4.23138C16.4942 4.50161 16.4998 4.61972 16.4998 9.00198L16.463 13.1083C16.462 13.7206 15.9679 14.3074 15.4 14.3943C14.8265 14.4642 13.3147 14.4718 8.59323 14.4897C3.92939 14.5077 2.3836 14.5086 1.76094 14.4453C1.35937 14.3934 1.09954 14.2176 0.851982 13.9653ZM4.51332 4.99483H2.00566V13.0101H4.51332V4.99483ZM11.0338 4.99483H6.01754V13.0101H11.0329L11.0338 4.99483ZM15.0457 4.99483H12.538V13.0101H15.0457V4.99483ZM11.0338 1.98923H6.01754V3.4925H11.0329L11.0338 1.98923Z" fill="#F15640"/>
</g>
<defs>
<clipPath id="clip0_413_464">
<rect width="16" height="14" fill="white" transform="translate(0.5 0.5)"/>
</clipPath>
</defs>
</svg>
