<svg xmlns="http://www.w3.org/2000/svg" width="64" height="56" viewBox="0 0 16.933 14.817"><path d="M.372 14.251c-.196-.22-.369-.53-.372-.752V4.604c-.008-.305.076-.457.239-.696.132-.193.256-.337.412-.444.36-.247.892-.298 2.081-.298h1.514V2.122c0-.909.031-1.09.239-1.394.499-.73.618-.751 4.08-.719 2.938.028 3.113.041 3.391.248.62.463.728.722.767 1.849l.036 1.045 1.575.034c1.714.037 1.875.089 2.38.764.213.286.219.411.219 5.049l-.039 4.346c-.001.648-.524 1.269-1.125 1.361-.607.074-2.207.082-7.204.101-4.936.019-6.572.02-7.231-.047-.425-.055-.7-.241-.962-.508zm3.875-9.494H1.593v8.483h2.654zm6.901 0H5.839v8.483h5.308zm4.246 0H12.74v8.483h2.654zm-4.246-3.181H5.839v1.591h5.308z" fill="#1e3050"/></svg>