<svg width="15" height="16" viewBox="0 0 15 16" fill="none" xmlns="http://www.w3.org/2000/svg">
<path d="M3.55276 4.07242C3.15003 4.07241 2.75636 3.95298 2.42151 3.72923C2.08667 3.50548 1.82569 3.18747 1.67158 2.8154C1.51748 2.44333 1.47716 2.03392 1.55573 1.63893C1.63431 1.24395 1.82824 0.881139 2.11301 0.596375C2.39778 0.311611 2.7606 0.117686 3.15559 0.0391226C3.55057 -0.039441 3.95998 0.000885332 4.33205 0.155002C4.70411 0.309119 5.02212 0.570104 5.24586 0.904956C5.4696 1.23981 5.58902 1.63348 5.58902 2.03621C5.58839 2.57606 5.37365 3.09361 4.99191 3.47534C4.61017 3.85707 4.09261 4.0718 3.55276 4.07242ZM3.55276 0.929176C3.33381 0.929187 3.11978 0.994123 2.93774 1.11577C2.7557 1.23742 2.61381 1.41032 2.53003 1.6126C2.44625 1.81489 2.42434 2.03747 2.46706 2.25221C2.50978 2.46695 2.61522 2.6642 2.77004 2.81901C2.92487 2.97383 3.12212 3.07926 3.33686 3.12197C3.5516 3.16468 3.77419 3.14275 3.97647 3.05896C4.17875 2.97517 4.35164 2.83328 4.47328 2.65123C4.59492 2.46918 4.65984 2.25515 4.65984 2.03621C4.6595 1.7427 4.54275 1.46132 4.3352 1.25378C4.12765 1.04624 3.84626 0.929507 3.55276 0.929176Z" fill="#F15640"/>
<path d="M5.15109 15.9682H1.98873C1.86814 15.9682 1.75226 15.9213 1.66561 15.8375C1.57895 15.7536 1.5283 15.6393 1.52437 15.5188L1.3869 11.3287L0.461342 11.3223C0.399422 11.3219 0.338212 11.3091 0.281312 11.2846C0.224412 11.2602 0.172969 11.2246 0.130008 11.1801C0.087046 11.1355 0.0534325 11.0827 0.0311429 11.025C0.00885327 10.9672 -0.00166264 10.9055 0.000213251 10.8436L0.0827012 8.11486C0.0791452 8.09189 0.0773636 8.06868 0.0773724 8.04544C0.0798114 7.1224 0.447951 6.23794 1.10117 5.58577C1.75438 4.9336 2.63943 4.56688 3.56247 4.56592C4.48552 4.56496 5.37132 4.92984 6.02589 5.58065C6.68046 6.23145 7.05044 7.11514 7.0548 8.03818L7.13953 10.8436C7.14141 10.9055 7.13089 10.9672 7.1086 11.0249C7.08631 11.0827 7.0527 11.1355 7.00974 11.18C6.96678 11.2246 6.91533 11.2602 6.85843 11.2846C6.80153 11.3091 6.74032 11.3219 6.6784 11.3223L5.75285 11.3286L5.61543 15.5188C5.61147 15.6393 5.56082 15.7536 5.47417 15.8374C5.38753 15.9213 5.27167 15.9682 5.15109 15.9682ZM2.43835 15.039H4.70147L4.83883 10.852C4.84277 10.7321 4.89298 10.6183 4.97894 10.5345C5.0649 10.4508 5.17993 10.4035 5.29995 10.4026L6.19647 10.3965L6.12585 8.0595L6.12562 8.04544C6.12547 7.37317 5.86083 6.72795 5.38889 6.24918C4.91694 5.77041 4.27559 5.49654 3.60339 5.48674C2.93119 5.47694 2.28211 5.73199 1.79641 6.19679C1.31071 6.66159 1.02737 7.29882 1.00761 7.9708C1.01271 8.00008 1.01484 8.0298 1.01396 8.0595L0.94334 10.3965L1.8398 10.4026C1.95982 10.4035 2.07485 10.4508 2.1608 10.5345C2.24676 10.6183 2.29697 10.7321 2.30093 10.852L2.43835 15.039Z" fill="#F15640"/>
<path d="M12.9185 15.9998H9.19351C8.7932 15.9994 8.40941 15.8401 8.12634 15.5571C7.84327 15.274 7.68405 14.8902 7.68359 14.4899V12.4333C7.68405 12.0329 7.84327 11.6492 8.12634 11.3661C8.40941 11.083 8.7932 10.9238 9.19351 10.9233H12.9185C13.3188 10.9238 13.7026 11.083 13.9856 11.3661C14.2687 11.6492 14.4279 12.0329 14.4284 12.4333V14.4899C14.4279 14.8902 14.2687 15.274 13.9856 15.5571C13.7026 15.8401 13.3188 15.9994 12.9185 15.9998ZM9.19351 11.6202C8.97796 11.6205 8.7713 11.7062 8.61888 11.8586C8.46646 12.0111 8.38072 12.2177 8.38048 12.4333V14.4899C8.38072 14.7055 8.46646 14.9121 8.61888 15.0645C8.7713 15.2169 8.97796 15.3027 9.19351 15.3029H12.9185C13.134 15.3027 13.3407 15.2169 13.4931 15.0645C13.6455 14.9121 13.7312 14.7055 13.7315 14.4899V12.4333C13.7312 12.2177 13.6455 12.011 13.4931 11.8586C13.3407 11.7062 13.134 11.6205 12.9185 11.6202L9.19351 11.6202Z" fill="#F15640"/>
<path d="M12.203 10.53C12.1106 10.53 12.022 10.4933 11.9566 10.428C11.8913 10.3626 11.8546 10.274 11.8546 10.1816C11.8544 10.0528 11.8032 9.92935 11.7121 9.83829C11.6211 9.74724 11.4976 9.69603 11.3688 9.69591H10.7432C10.6144 9.69603 10.4909 9.74724 10.3999 9.83829C10.3088 9.92935 10.2576 10.0528 10.2574 10.1816C10.2574 10.274 10.2207 10.3626 10.1554 10.428C10.09 10.4933 10.0014 10.53 9.90899 10.53C9.81658 10.53 9.72795 10.4933 9.6626 10.428C9.59726 10.3626 9.56055 10.274 9.56055 10.1816C9.56093 9.86807 9.68565 9.56749 9.90736 9.3458C10.1291 9.1241 10.4296 8.99939 10.7432 8.99902H11.3688C11.6824 8.99939 11.9829 9.1241 12.2046 9.3458C12.4264 9.56749 12.5511 9.86807 12.5515 10.1816C12.5514 10.274 12.5147 10.3626 12.4494 10.428C12.384 10.4933 12.2954 10.53 12.203 10.53Z" fill="#F15640"/>
</svg>
