<svg width="15" height="14" viewBox="0 0 15 14" fill="none" xmlns="http://www.w3.org/2000/svg">
<path fill-rule="evenodd" clip-rule="evenodd" d="M3.98378 10.6667H11.0949C12.0727 10.6667 12.8727 9.86667 12.8727 8.88889V0.888889C12.8727 0.4 12.4727 0 11.9838 0H3.09489C2.606 0 2.206 0.4 2.206 0.888889V8.88889C2.206 9.86667 3.006 10.6667 3.98378 10.6667ZM5.49489 9.77778C5.62822 9.51111 5.76156 9.2 5.76156 8.88889C5.76156 8.57778 5.67267 8.26667 5.49489 8H9.53933C9.406 8.26667 9.27267 8.57778 9.27267 8.88889C9.27267 9.2 9.36156 9.51111 9.53933 9.77778H5.49489ZM11.0949 9.77778C10.606 9.77778 10.206 9.37778 10.206 8.88889C10.206 8.4 10.606 8 11.0949 8C11.5838 8 11.9838 8.4 11.9838 8.88889C11.9838 9.37778 11.5838 9.77778 11.0949 9.77778ZM3.09489 1.33333C3.09489 1.06667 3.27267 0.888889 3.53933 0.888889H11.5393C11.806 0.888889 11.9838 1.06667 11.9838 1.33333V3.55556H3.09489V1.33333ZM3.09489 4.44444H11.9838V7.11111H3.09489V4.44444ZM3.98378 8C4.47267 8 4.87267 8.4 4.87267 8.88889C4.87267 9.37778 4.47267 9.77778 3.98378 9.77778C3.49489 9.77778 3.09489 9.37778 3.09489 8.88889C3.09489 8.4 3.49489 8 3.98378 8ZM0.428223 13.3333V14.2222H14.6504V13.3333H0.428223ZM5.76156 2.66667H9.31711V1.77778H5.76156V2.66667ZM13.7616 11.5556H1.31711V12.4444H13.7616V11.5556Z" fill="#F15640"/>
</svg>
