<?xml version="1.0" encoding="UTF-8" standalone="no"?>
<!-- Generator: Adobe Illustrator 26.3.1, SVG Export Plug-In . SVG Version: 6.00 Build 0)  -->

<svg
   version="1.1"
   id="Layer_1"
   x="0px"
   y="0px"
   viewBox="0 0 808.67239 538.6902"
   xml:space="preserve"
   sodipodi:docname="great_hikes.svg"
   width="808.67236"
   height="538.69019"
   inkscape:version="1.3.1 (91b66b0, 2023-11-16)"
   xmlns:inkscape="http://www.inkscape.org/namespaces/inkscape"
   xmlns:sodipodi="http://sodipodi.sourceforge.net/DTD/sodipodi-0.dtd"
   xmlns="http://www.w3.org/2000/svg"
   xmlns:svg="http://www.w3.org/2000/svg"><defs
   id="defs3" /><sodipodi:namedview
   id="namedview3"
   pagecolor="#ffffff"
   bordercolor="#000000"
   borderopacity="0.25"
   inkscape:showpageshadow="2"
   inkscape:pageopacity="0.0"
   inkscape:pagecheckerboard="0"
   inkscape:deskcolor="#d1d1d1"
   showguides="true"
   inkscape:zoom="1.0477229"
   inkscape:cx="298.26589"
   inkscape:cy="226.20485"
   inkscape:window-width="1392"
   inkscape:window-height="1027"
   inkscape:window-x="0"
   inkscape:window-y="25"
   inkscape:window-maximized="0"
   inkscape:current-layer="Layer_1"><sodipodi:guide
     position="298.05156,832.34752"
     orientation="0,-1"
     id="guide3"
     inkscape:locked="false" /><sodipodi:guide
     position="393.49664,276.85712"
     orientation="0,-1"
     id="guide4"
     inkscape:locked="false" /></sodipodi:namedview>
<g
   id="g3"
   style="fill:#ffffff"
   transform="matrix(1.2794564,0,0,1.4994539,-119.98503,-307.7947)">
	<path
   d="M 127.2,507.3 C 184.4,407.5 240.4,310 297.2,211 c 31.1,54.1 61.1,106.5 92.3,160.7 20.7,-35.9 40.5,-70.2 61.4,-106.4 27.8,48.3 54.4,94.6 82.1,142.7 17.5,-30.2 34.2,-59.2 52.3,-90.6 39.7,69.4 78.7,137.3 118.3,206.3 -21.4,1.5 -38.9,-5.2 -56,-12.4 -26.5,-11.1 -52.5,-23.6 -78.8,-35.2 -6.4,-2.8 -13.2,-4.5 -20,-6.2 -22.5,-5.4 -41.2,1.9 -59.3,15.6 -11.3,8.6 -24.9,15.3 -38.6,19.2 -22.2,6.4 -41.3,-4.5 -59.9,-15.6 -19.4,-11.6 -38.5,-24.2 -59.1,-33 -26.2,-11.1 -53.6,-7.7 -79.4,3.1 -21.4,8.9 -41.6,20.7 -62.7,30.3 -18.9,8.8 -38.8,15.2 -62.6,17.8 z m 223.5,-68 c 6.6,-11.4 14.8,-25.1 22.1,-39.2 1.5,-2.8 0.4,-8.1 -1.3,-11.2 -10.3,-18.8 -21.2,-37.3 -31.9,-55.9 -13.8,-24.1 -27.7,-48.2 -42.6,-74.2 -41.4,72.2 -82,143 -122.7,213.8 0.5,0.6 0.9,1.2 1.4,1.8 3.1,-1 6.5,-1.6 9.4,-3.1 14.6,-7.3 28.8,-15.2 43.5,-22.2 21.6,-10.4 43.8,-20.5 68.3,-19 17.3,1 34.2,5.7 53.8,9.2 z m 100.1,-126 c -8.1,13.9 -14.9,25.5 -21.6,37.2 -18.5,32.2 -37,64.4 -55.6,96.5 -3.1,5.3 -3.7,9 2.6,12.5 7.9,4.3 15.2,9.5 22.9,14.2 12.9,8 27.3,13.9 42.2,12 30.3,-3.8 55.5,-17.7 72.8,-44 4.4,-6.6 4.2,-12.2 0,-19.2 -13,-21.6 -25.3,-43.6 -37.9,-65.5 -8.1,-13.9 -16.2,-27.7 -25.4,-43.7 z m 205.4,180.8 c 0.6,-0.7 1.2,-1.3 1.8,-2 -24,-41.8 -48,-83.6 -72.9,-126.9 -16.3,28.4 -31.4,54.7 -47.2,82.4 43.9,7.3 78.4,33.7 118.3,46.5 z"
   id="path1"
   style="fill:#ffffff" />
	<path
   d="m 659.9,558.8 c -186.8,0 -373.7,0 -560.9,0 0.7,-6.7 4.8,-7.9 10.2,-8.5 37.3,-3.6 72.1,-14.3 105.1,-32.6 19.3,-10.7 40.5,-19.3 61.9,-24.9 31.3,-8.2 60.3,1.2 86.9,19 13.5,9.1 27.4,17.6 41.5,25.5 25.4,14.3 50.4,11.1 74.7,-3.2 7.2,-4.3 14.6,-8.6 21,-14 16.9,-14.4 36,-14.8 55.1,-8 21,7.5 41.1,17.4 61.6,26.3 14.3,6.2 28.6,12.6 42.9,18.9 0,0.6 0,1.1 0,1.5 z"
   id="path2"
   style="fill:#ffffff" />
	<path
   d="m 720.6,553.2 c -15.8,4 -30.1,3.7 -43.2,-1.2 -28.2,-10.6 -55.8,-23 -83.7,-34.4 -13.4,-5.5 -26.8,-11.4 -40.7,-15.6 -23.7,-7.2 -44,-0.3 -63.6,14.5 -11.7,8.9 -26,15.6 -40.1,19.6 -21.6,6 -40.1,-5.1 -58.1,-16 -17.1,-10.4 -34,-21.3 -52,-30.1 -27.9,-13.6 -57,-11.7 -84.9,-0.1 -26,10.7 -50.8,24.3 -76.6,35.6 -21.1,9.2 -43.9,12.9 -66.8,15.7 -0.1,-13.5 9.6,-23.3 23.3,-25.8 11.2,-2 22.7,-3.6 33.1,-7.8 19.6,-8 38.2,-18.4 57.8,-26.5 18.7,-7.7 37.8,-15.6 57.4,-20.1 29.4,-6.8 55.5,4.1 80,20 14.1,9.2 28.3,18.4 43.1,26.3 24.5,13.1 49,10.1 72.6,-3.2 7.6,-4.3 15.1,-8.9 21.7,-14.6 16.5,-14.1 35.5,-15.3 54.3,-8.4 24.2,8.8 47.7,20 71.3,30.5 25.1,11.1 50.2,22 78.5,21.6 2,0 4.9,0.9 6,2.5 3.6,5.1 6.6,10.7 10.6,17.5 z"
   id="path3"
   style="fill:#ffffff" />
</g>
</svg>
